STARTFONT 2.1
COMMENT
COMMENT Converted from OpenType font "Q:\font stuff\winfont\Luftwaffe Regular.ttf" by "otf2bdf 3.0".
COMMENT
FONT -FreeType-Luftwaffe-Medium-R-Normal--72-720-72-72-P-225-ISO10646-1
SIZE 72 72 72
FONTBOUNDINGBOX 83 75 -10 -16
STARTPROPERTIES 19
FOUNDRY "FreeType"
FAMILY_NAME "Luftwaffe"
WEIGHT_NAME "Medium"
SLANT "R"
SETWIDTH_NAME "Normal"
ADD_STYLE_NAME ""
PIXEL_SIZE 72
POINT_SIZE 720
RESOLUTION_X 72
RESOLUTION_Y 72
SPACING "P"
AVERAGE_WIDTH 225
CHARSET_REGISTRY "ISO10646"
CHARSET_ENCODING "1"
FONT_ASCENT 59
FONT_DESCENT 15
COPYRIGHT "More KeyFonts TM SoftKey Software Products, Inc.  Copyright (c)1992 W.S.I.  All Rights Reserved.  Redistribution strictly prohibited.  RWE"
_OTF_FONTFILE "Q:\font stuff\winfont\Luftwaffe Regular.ttf"
_OTF_PSNAME "Luftwaffe"
ENDPROPERTIES
CHARS 231
STARTCHAR 0020
ENCODING 32
SWIDTH 319 0
DWIDTH 23 0
BBX 0 0 0 0
BITMAP
ENDCHAR
STARTCHAR 0021
ENCODING 33
SWIDTH 361 0
DWIDTH 26 0
BBX 15 51 6 -1
BITMAP
0FC0
1FE0
3FF0
7FF0
7FF0
7FF8
7FF8
7FF8
7FF8
7FF8
7FF8
7FF8
7FF0
3FF0
3FF0
3FF0
3FF0
1FF0
1FE0
1FE0
1FE0
0FE0
0FC0
0FC0
0FC0
07C0
0780
0780
0780
0380
0300
0300
0300
0300
0000
0000
0000
0100
0300
0780
07C0
0FE0
3FF0
FFFE
FFFE
3FF0
0FE0
07C0
0780
0380
0100
ENDCHAR
STARTCHAR 0022
ENCODING 34
SWIDTH 444 0
DWIDTH 32 0
BBX 25 24 4 26
BITMAP
04001000
04003000
0E003800
0E003800
1F007C00
3F80FE00
7FC1FF00
FFE3FF80
7FC1FF00
3F80FE00
3F80FE00
1F807E00
1F007C00
1F007C00
0F003C00
0E003800
0E003800
0E003800
0E003800
06001800
06001800
06001800
04001000
04001000
ENDCHAR
STARTCHAR 0023
ENCODING 35
SWIDTH 638 0
DWIDTH 46 0
BBX 32 48 7 0
BITMAP
007F03F8
007F03F8
007F03F8
007F03F8
007F07F0
00FF07F0
00FE07F0
00FE07F0
00FE07F0
00FE07F0
00FE07F0
00FE0FE0
01FE0FE0
01FC0FE0
3FFFFFFF
3FFFFFFF
3FFFFFFF
3FFFFFFF
3FFFFFFF
3FFFFFFF
03F80FC0
03F80FC0
03F80FC0
03F80FC0
03F80FC0
03F01FC0
03F01F80
07F01F80
07F01F80
FFFFFFFC
FFFFFFFC
FFFFFFFC
FFFFFFFC
FFFFFFFC
FFFFFFFC
0FE03F00
0FE03F00
0FE03F00
0FE03F00
0FC07F00
0FC07E00
1FC07E00
1FC07E00
1FC07E00
1FC07E00
1FC07E00
1F807E00
1F80FC00
ENDCHAR
STARTCHAR 0024
ENCODING 36
SWIDTH 638 0
DWIDTH 46 0
BBX 37 70 5 -11
BITMAP
0000300000
0000300000
0000300000
0000300000
0000300000
0000300000
0000300000
0000300000
0007FF0000
003C31E000
00F0303800
01E0301E00
07C0300F00
0F80300780
0F00300FC0
1F00303FE0
3F0030FFE0
3F0031FFF0
7F0033FFF0
7F0033FFF0
7F8033FFF0
7F8033FFF0
7FC033FFE0
7FF031FFE0
7FFC30FFC0
7FFF307F00
7FFFF00000
7FFFFC0000
3FFFFF0000
3FFFFFC000
1FFFFFF000
1FFFFFFC00
0FFFFFFE00
07FFFFFF80
03FFFFFFC0
00FFFFFFC0
007FFFFFE0
001FFFFFF0
0007FFFFF0
0001FFFFF0
00007FFFF0
0FC037FFF8
3FF031FFF8
7FF0307FF8
7FF8303FF8
FFF8301FF8
FFFC300FF8
FFFC3007F0
FFFC3007F0
FFF83003F0
FFF83003E0
FFF03003E0
7F003003C0
7C00300780
3C00300780
1C00300F00
0700301C00
03C0303800
007831E000
000FFF0000
0000300000
0000300000
0000300000
0000300000
0000300000
0000300000
0000300000
0000300000
0000300000
0000300000
ENDCHAR
STARTCHAR 0025
ENCODING 37
SWIDTH 805 0
DWIDTH 58 0
BBX 53 49 2 0
BITMAP
007F0000008000
03C1E00001C000
0780F00003C000
0F80F800038000
1F80FC00078000
3F80FE000F0000
7F80FF000E0000
7F80FF001E0000
7F80FF001C0000
FF80FF80380000
FF80FF80780000
FF80FF80700000
FF80FF80F00000
FF80FF81E00000
FF80FF81C00000
FF80FF83C00000
7F80FF03800000
7F80FF07000000
3F80FF0F000000
3F80FE0E000000
1F80FC1E000000
0F80F83C000000
0780F038000000
03C1E078000000
007F0070000000
000000E007F800
000001E01E1E00
000001C03C0F00
000003C0FC0FC0
00000780FC0FE0
00000701FC0FE0
00000F03FC0FF0
00001E03FC0FF0
00001C03FC0FF8
00003C07FC0FF8
00003807FC0FF8
00007807FC0FF8
0000F007FC0FF8
0000E007FC0FF8
0001E007FC0FF8
0003C003FC0FF8
00038003FC0FF0
00078003FC0FF0
00070001FC0FE0
000E0000FC0FC0
001E00007C0FC0
001C00003C0F00
000C00001E1E00
0000000007F800
ENDCHAR
STARTCHAR 0026
ENCODING 38
SWIDTH 805 0
DWIDTH 58 0
BBX 56 54 2 -4
BITMAP
000007F0000000
00003F8C000000
0000FF02000000
0001FE01000000
0003FC01800000
0007FC01800000
000FFC01C00000
000FFC01C00000
001FFC01C00FE0
001FFC03C030F8
003FFC03C060FC
003FFE03C0C1FE
003FFF078183FE
003FFF8F0183FF
003FFFDF0307FF
003FFFFC0307FF
003FFFF00307FF
003FFFF80607FF
001FFFFC0607FE
001FFFFE0607FE
000FFFFF8E03FC
001FFFFFCC01F8
0077FFFFEC0000
00E3FFFFFC0000
03C1FFFFFE0000
07C0FFFFFF0000
0F807FFFFF8000
1F801FFFFFC000
3F800FFFFFE000
3F8007FFFFF000
7F8003FFFFF000
7FC000FFFFF800
FFC0007FFFF800
FFE0003FFFF800
FFF0000FFFFC00
FFF80007FFFC00
FFFC0001FFFC00
FFFE0001FFFC00
FFFF80027FFC00
FFFFC0063FFC00
7FFFF81C3FFC00
7FFFFFFC1FFC00
7FFFFFF81FFC00
3FFFFFF81FF800
1FFFFFF01FF800
1FFFFFE01FF800
0FFFFFC01FF000
07FFFF801FF000
01FFFF003FE000
007FFC003FC000
001FF0007F8000
00000000FF0000
00000003FC0000
0000001FE00000
ENDCHAR
STARTCHAR 0027
ENCODING 39
SWIDTH 263 0
DWIDTH 19 0
BBX 11 24 4 26
BITMAP
0400
0C00
0E00
0E00
1F00
3F80
7FC0
FFE0
7FC0
3F80
3F80
3F00
1F00
1F00
1F00
0E00
0E00
0E00
0E00
0E00
0600
0400
0400
0400
ENDCHAR
STARTCHAR 0028
ENCODING 40
SWIDTH 347 0
DWIDTH 25 0
BBX 24 66 1 -16
BITMAP
000003
00000E
000038
0000F0
0001E0
0007C0
000FC0
001F80
003F00
007F00
00FF00
00FE00
01FE00
03FE00
07FE00
07FE00
0FFC00
0FFC00
1FFC00
1FFC00
3FFC00
3FFC00
3FFC00
7FFC00
7FFC00
7FFC00
7FFC00
FFFC00
FFFC00
FFFC00
FFFC00
FFFC00
FFFC00
FFFC00
FFFC00
FFFC00
FFFC00
FFFC00
FFFC00
7FFC00
7FFC00
7FFC00
7FFC00
3FFC00
3FFC00
3FFC00
1FFC00
1FFC00
0FFC00
0FFC00
07FE00
07FE00
03FE00
01FE00
01FE00
00FF00
007F00
003F00
001F80
000F80
0007C0
0001E0
0000F0
000038
00000E
000003
ENDCHAR
STARTCHAR 0029
ENCODING 41
SWIDTH 347 0
DWIDTH 25 0
BBX 24 66 0 -16
BITMAP
800000
700000
1C0000
0F0000
078000
03C000
03F000
01F800
00FC00
00FE00
00FE00
007F00
007F80
007FC0
007FC0
007FE0
003FF0
003FF0
003FF8
003FF8
003FFC
003FFC
003FFC
003FFE
003FFE
003FFE
003FFE
003FFF
003FFF
003FFF
003FFF
003FFF
003FFF
003FFF
003FFF
003FFF
003FFF
003FFF
003FFF
003FFE
003FFE
003FFE
003FFE
003FFC
003FFC
003FFC
003FF8
003FF8
003FF0
003FF0
007FE0
007FC0
007FC0
007F80
007F00
00FF00
00FE00
01FC00
01F800
03F000
03C000
078000
0F0000
1C0000
700000
800000
ENDCHAR
STARTCHAR 002A
ENCODING 42
SWIDTH 402 0
DWIDTH 29 0
BBX 24 26 2 24
BITMAP
003C00
007E00
00FE00
00FE00
007E00
007E00
787E1E
7C3C3F
FE3C7F
FF38FF
7F99FF
3FDFFE
0FFFF0
001C00
3FF7F8
7FDBFF
FF99FF
FF38FF
FE3C7F
7C7C3F
387E0E
007E00
00FE00
00FE00
007E00
003C00
ENDCHAR
STARTCHAR 002B
ENCODING 43
SWIDTH 569 0
DWIDTH 41 0
BBX 35 34 3 0
BITMAP
0003F80000
0003F80000
0003F80000
0003F80000
0003F80000
0003F80000
0003F80000
0003F80000
0003F80000
0003F80000
0003F80000
0003F80000
0003F80000
0003F80000
FFFFFFFFE0
FFFFFFFFE0
FFFFFFFFE0
FFFFFFFFE0
FFFFFFFFE0
FFFFFFFFE0
FFFFFFFFE0
0003F80000
0003F80000
0003F80000
0003F80000
0003F80000
0003F80000
0003F80000
0003F80000
0003F80000
0003F80000
0003F80000
0003F80000
0003F80000
ENDCHAR
STARTCHAR 002C
ENCODING 44
SWIDTH 319 0
DWIDTH 23 0
BBX 15 26 4 -14
BITMAP
0100
0380
0380
07C0
0FE0
3FF8
FFFE
FFFC
3FF8
1FE0
0FE0
07C0
07C0
0780
0780
0700
0700
0600
0600
0600
0C00
0C00
1800
1000
2000
4000
ENDCHAR
STARTCHAR 002D
ENCODING 45
SWIDTH 388 0
DWIDTH 28 0
BBX 19 6 4 16
BITMAP
FFFFE0
FFFFE0
FFFFE0
FFFFE0
FFFFE0
FFFFE0
ENDCHAR
STARTCHAR 002E
ENCODING 46
SWIDTH 319 0
DWIDTH 23 0
BBX 15 14 4 -1
BITMAP
0100
0380
0380
07C0
0FE0
3FF0
FFFE
FFFE
3FF0
0FE0
07C0
0780
0380
0100
ENDCHAR
STARTCHAR 002F
ENCODING 47
SWIDTH 250 0
DWIDTH 18 0
BBX 19 51 0 -2
BITMAP
0003E0
0007E0
0007E0
0007C0
0007C0
000FC0
000FC0
000F80
001F80
001F80
001F00
001F00
003F00
003F00
003E00
007E00
007E00
007C00
007C00
00FC00
00FC00
00F800
00F800
01F800
01F000
01F000
03F000
03E000
03E000
03E000
07E000
07C000
07C000
0FC000
0F8000
0F8000
0F8000
1F8000
1F0000
1F0000
3F0000
3E0000
3E0000
3E0000
7E0000
7C0000
7C0000
FC0000
F80000
F80000
F80000
ENDCHAR
STARTCHAR 0030
ENCODING 48
SWIDTH 625 0
DWIDTH 45 0
BBX 42 49 2 -1
BITMAP
00007F800000
0003E0F00000
000FC07C0000
003F807F0000
007F803F8000
00FF803FC000
01FF803FE000
03FF803FF000
07FF803FF800
0FFF803FF800
0FFF803FFC00
1FFF803FFE00
3FFF803FFE00
3FFF803FFE00
3FFF803FFF00
7FFF803FFF00
7FFF803FFF80
7FFF803FFF80
7FFF803FFF80
FFFF803FFF80
FFFF803FFF80
FFFF803FFF80
FFFF803FFF80
FFFF803FFFC0
FFFF803FFFC0
FFFF803FFFC0
FFFF803FFFC0
FFFF803FFF80
FFFF803FFF80
FFFF803FFF80
7FFF803FFF80
7FFF803FFF80
7FFF803FFF80
7FFF803FFF00
3FFF803FFF00
3FFF803FFE00
1FFF803FFE00
1FFF803FFE00
0FFF803FFC00
0FFF803FF800
07FF803FF800
03FF803FF000
01FF803FE000
00FF803FC000
007F803F8000
003F807F0000
000FC07C0000
0003E0F00000
00007F800000
ENDCHAR
STARTCHAR 0031
ENCODING 49
SWIDTH 625 0
DWIDTH 45 0
BBX 32 48 7 0
BITMAP
00003E00
00003E00
00007E00
0000FE00
0000FE00
0001FE00
0003FE00
0007FE00
000FFE00
003FFE00
01FFFE00
FFFFFE00
00FFFE00
007FFE00
007FFE00
007FFE00
007FFE00
007FFE00
007FFE00
007FFE00
007FFE00
007FFE00
007FFE00
007FFE00
007FFE00
007FFE00
007FFE00
007FFE00
007FFE00
007FFE00
007FFE00
007FFE00
007FFE00
007FFE00
007FFE00
007FFE00
007FFE00
007FFE00
007FFE00
007FFE00
007FFE00
007FFE00
007FFE00
007FFE00
007FFE00
007FFE00
007FFF00
7FFFFFFF
ENDCHAR
STARTCHAR 0032
ENCODING 50
SWIDTH 625 0
DWIDTH 45 0
BBX 38 49 3 -1
BITMAP
000FFE0000
00F07FE000
03000FF800
060007FE00
1C0003FF80
3C0001FFC0
3C0001FFE0
7C0001FFE0
FE0000FFF0
FFE000FFF8
FFF800FFF8
FFFC00FFF8
FFFC00FFF8
FFFE01FFFC
FFFE01FFFC
FFFE01FFFC
FFFC01FFFC
7FFC03FFF8
3FF803FFF8
1FF007FFF8
0FE00FFFF8
00001FFFF0
00003FFFE0
00007FFFE0
0000FFFFC0
0001FFFF00
0003FFFE00
0007FFF800
000FFFC004
001FFE0004
003FE00004
007E000004
00F000000C
03C0000008
0300000018
061FFC0078
0DFFFFFFF8
0FFFFFFFF8
11FFFFFFF8
107FFFFFF0
303FFFFFF0
300FFFFFF0
3807FFFFE0
3803FFFFE0
3C01FFFFC0
3C00FFFF80
3E003FFF00
1C000FFE00
000003F800
ENDCHAR
STARTCHAR 0033
ENCODING 51
SWIDTH 625 0
DWIDTH 45 0
BBX 38 49 4 -1
BITMAP
000FFF0000
00F07FE000
03801FFC00
07800FFE00
0F800FFF80
1FE007FFC0
3FF007FFC0
3FFC07FFE0
3FFE07FFE0
3FFE07FFE0
3FFF03FFF0
3FFF03FFF0
3FFE03FFF0
3FFE03FFE0
1FFC03FFE0
0FF807FFE0
03F007FFC0
000007FFC0
000007FF80
000007FE00
00000FFC00
00003FE000
00FFFF0000
00003FF000
00000FFE00
000007FF00
000003FFC0
000003FFE0
000001FFF0
000001FFF0
0FC001FFF8
3FE001FFF8
7FF001FFFC
FFF801FFFC
FFF800FFFC
FFFC00FFFC
FFFC00FFFC
FFFC00FFFC
FFF800FFF8
FFF801FFF8
FFF001FFF8
7FE001FFF0
7FC001FFE0
3F8001FFC0
1F0003FF80
0F0007FF00
03000FFC00
00E03FE000
001FFE0000
ENDCHAR
STARTCHAR 0034
ENCODING 52
SWIDTH 625 0
DWIDTH 45 0
BBX 41 48 2 0
BITMAP
000000FF8000
000000FF8000
000001FF8000
000003FF8000
000007FF8000
000007FF8000
00000FFF8000
00001FFF8000
00001FFF8000
00003FFF8000
00007FFF8000
00006FFF8000
0000CFFF8000
0001CFFF8000
00038FFF8000
00030FFF8000
00060FFF8000
000E0FFF8000
000C0FFF8000
00180FFF8000
00380FFF8000
00700FFF8000
00600FFF8000
00C00FFF8000
01C00FFF8000
01800FFF8000
03000FFF8000
07000FFF8000
0E000FFF8000
0C000FFF8000
1C000FFF8000
38000FFF8000
30000FFF8000
60000FFF8000
FFFFFFFFFF80
FFFFFFFFFF80
FFFFFFFFFF80
00000FFF8000
00000FFF8000
00000FFF8000
00000FFF8000
00000FFF8000
00000FFF8000
00000FFF8000
00000FFF8000
00000FFF8000
00001FFFC000
000FFFFFFF80
ENDCHAR
STARTCHAR 0035
ENCODING 53
SWIDTH 625 0
DWIDTH 45 0
BBX 38 51 4 -1
BITMAP
0000000200
0000000200
0000000600
1FF8000E00
1FFFFFFE00
1FFFFFFE00
1FFFFFFC00
1FFFFFFC00
1FFFFFF800
1FFFFFF000
1FFFFFE000
1FFFFF8000
1FFFFE0000
1FFFF00000
0800000000
0800000000
0800000000
0800000000
1801FF8000
181E3FF000
18600FFC00
188007FE00
190007FF80
1A0003FFC0
1C0003FFE0
180001FFE0
180001FFF0
100001FFF0
000001FFF8
000001FFF8
000001FFF8
000001FFF8
0FC001FFF8
3FE000FFFC
7FF000FFFC
FFF801FFF8
FFF801FFF8
FFF801FFF8
FFFC01FFF8
FFF801FFF0
FFF801FFF0
FFF801FFE0
FFF001FFE0
FFE001FFC0
7FC003FF80
3F0003FF00
3E0007FE00
0E0007F800
07001FE000
01C07F8000
003FF80000
ENDCHAR
STARTCHAR 0036
ENCODING 54
SWIDTH 625 0
DWIDTH 45 0
BBX 38 49 3 -1
BITMAP
00003FE000
0003F03E00
000FC01F00
001FC01FC0
007F803FE0
00FF007FE0
01FF00FFF0
03FF01FFF0
03FF01FFF0
07FF03FFF0
0FFF03FFF0
0FFE01FFF0
1FFE01FFE0
1FFE00FFC0
3FFE003F80
3FFE000000
3FFE000000
7FFE000000
7FFE000000
7FFE07F000
7FFE1FFE00
7FFE23FF80
FFFE41FFC0
FFFE80FFE0
FFFE80FFF0
FFFF00FFF8
FFFF00FFF8
FFFF00FFFC
7FFF00FFFC
7FFF00FFFC
7FFF00FFFC
7FFE00FFFC
7FFE00FFFC
7FFE00FFFC
3FFE00FFFC
3FFE00FFFC
1FFE00FFFC
1FFE00FFFC
0FFE00FFF8
0FFE00FFF8
07FE00FFF0
03FE00FFF0
03FF00FFE0
01FF00FFC0
00FF00FF80
007F01FF00
001F81FC00
0007C3F000
0000FF8000
ENDCHAR
STARTCHAR 0037
ENCODING 55
SWIDTH 625 0
DWIDTH 45 0
BBX 36 49 5 -1
BITMAP
C00FC001C0
E07FF003E0
E0FFF803E0
E1FFFE03F0
E3FFFF01F0
E7FFFF81F0
E7FFFFC0F0
EFFFFFE070
EFFFFFF030
DFFFFFF830
DFFFFFFE70
DFFFFFFFF0
7FFFFFFFA0
780FFFFE60
70003FF060
60000000C0
C000000180
C000000380
8000000700
8000001E00
8000003E00
800000FC00
800003F800
00000FF800
00003FF000
0000FFE000
0001FFE000
0003FFE000
000FFFC000
001FFFC000
003FFFC000
003FFFC000
007FFF8000
007FFF8000
00FFFF8000
00FFFF8000
01FFFF8000
01FFFF8000
01FFFF8000
01FFFF8000
01FFFF8000
01FFFF8000
01FFFF8000
00FFFF0000
00FFFF0000
007FFF0000
007FFE0000
001FFC0000
0007F00000
ENDCHAR
STARTCHAR 0038
ENCODING 56
SWIDTH 625 0
DWIDTH 45 0
BBX 41 49 2 -1
BITMAP
0001FFC00000
001E007C0000
0078001F8000
01E00007E000
03C00003F000
07C00001F800
0F800000FC00
1F800000FC00
3F800000FE00
3F800000FE00
3FC00000FE00
7FE00000FE00
7FF00000FE00
7FFC0000FC00
7FFF8001FC00
7FFFF001F800
7FFFFE03E000
7FFFFFC78000
3FFFFFFC0000
3FFFFFFF0000
1FFFFFFFC000
1FFFFFFFF000
0FFFFFFFF800
07FFFFFFFC00
03FFFFFFFE00
01FFFFFFFF00
007FFFFFFF00
003FFFFFFF00
01E7FFFFFF80
07C0FFFFFF80
1F801FFFFF80
3F0003FFFF80
7F00007FFF80
7F00000FFF80
FF000007FF80
FE000003FF80
FE000001FF80
FE000000FF80
FE000000FF00
7E000000FF00
7E000000FE00
3F000000FE00
3F000000FC00
1F800001F800
0FC00001F000
03E00003C000
00F800078000
003F003C0000
0001FFE00000
ENDCHAR
STARTCHAR 0039
ENCODING 57
SWIDTH 625 0
DWIDTH 45 0
BBX 39 49 3 -1
BITMAP
0003FE0000
001F87C000
007F03F000
01FE03FC00
03FE01FE00
07FE01FF00
0FFE01FF80
1FFE01FFC0
3FFE01FFC0
3FFC01FFE0
7FFC01FFF0
7FFC01FFF0
7FFC01FFF8
FFFC01FFF8
FFFC01FFFC
FFFC01FFFC
FFFC01FFFC
FFFC01FFFC
FFFC01FFFE
7FFC01FFFE
7FFC01FFFE
7FFC01FFFE
3FFE03FFFE
3FFE03FFFE
1FFE03FFFE
1FFE07FFFE
0FFE05FFFE
03FF09FFFE
01FFF1FFFE
003FC1FFFC
000001FFFC
000001FFFC
000001FFFC
03F001FFF8
0FFC01FFF8
1FFC01FFF8
1FFE01FFF0
3FFE01FFF0
3FFE01FFE0
3FFE01FFE0
3FFE01FFC0
1FFE01FF80
1FFC01FF00
1FF803FE00
0FF003FC00
07E007F800
03E00FE000
00F01F8000
001FF80000
ENDCHAR
STARTCHAR 003A
ENCODING 58
SWIDTH 319 0
DWIDTH 23 0
BBX 15 37 4 -1
BITMAP
0100
0380
0380
07C0
0FE0
3FF8
FFFE
FFFE
3FF0
0FE0
07C0
0780
0380
0100
0000
0000
0000
0000
0000
0000
0000
0000
0000
0100
0380
0380
07C0
0FE0
3FF0
FFFE
FFFE
3FF0
0FE0
07C0
0780
0380
0100
ENDCHAR
STARTCHAR 003B
ENCODING 59
SWIDTH 319 0
DWIDTH 23 0
BBX 15 49 4 -14
BITMAP
0100
0380
0380
07C0
0FE0
3FF8
FFFE
FFFE
3FF8
0FE0
07C0
07C0
0380
0100
0000
0000
0000
0000
0000
0000
0000
0000
0100
0380
0380
07C0
0FE0
1FF0
7FFC
FFFE
7FF8
1FF0
0FE0
0FC0
07C0
0780
0780
0780
0700
0700
0600
0600
0600
0400
0C00
0800
1000
3000
6000
ENDCHAR
STARTCHAR 003C
ENCODING 60
SWIDTH 555 0
DWIDTH 40 0
BBX 32 36 3 0
BITMAP
00000001
00000007
0000001F
0000007F
000003FF
00000FFF
00003FFF
0000FFFF
0003FFFC
000FFFF0
003FFFC0
00FFFF00
03FFFC00
0FFFF000
7FFFC000
FFFF0000
FFFC0000
FFE00000
FFC00000
FFF00000
FFFC0000
FFFF8000
3FFFE000
0FFFF800
03FFFE00
007FFF80
001FFFE0
0007FFF8
0001FFFE
00007FFF
00001FFF
000007FF
000001FF
0000003F
0000000F
00000003
ENDCHAR
STARTCHAR 003D
ENCODING 61
SWIDTH 583 0
DWIDTH 42 0
BBX 36 23 3 6
BITMAP
FFFFFFFFF0
FFFFFFFFF0
FFFFFFFFF0
FFFFFFFFF0
FFFFFFFFF0
FFFFFFFFF0
FFFFFFFFF0
FFFFFFFFF0
0000000000
0000000000
0000000000
0000000000
0000000000
0000000000
0000000000
0000000000
FFFFFFFFF0
FFFFFFFFF0
FFFFFFFFF0
FFFFFFFFF0
FFFFFFFFF0
FFFFFFFFF0
FFFFFFFFF0
ENDCHAR
STARTCHAR 003E
ENCODING 62
SWIDTH 555 0
DWIDTH 40 0
BBX 32 37 3 0
BITMAP
C0000000
F0000000
FC000000
FF000000
FFC00000
FFF00000
FFFC0000
FFFF0000
3FFFC000
0FFFF000
03FFFC00
00FFFF00
003FFFC0
0007FFF8
0001FFFE
00007FFF
00001FFF
000007FF
000003FF
00000FFF
00003FFF
0000FFFF
0003FFFC
000FFFF0
003FFFC0
01FFFF00
07FFFC00
1FFFE000
7FFF8000
FFFE0000
FFF80000
FFE00000
FF800000
FE000000
F8000000
E0000000
80000000
ENDCHAR
STARTCHAR 003F
ENCODING 63
SWIDTH 430 0
DWIDTH 31 0
BBX 28 51 1 -1
BITMAP
007FC000
03FFF800
0E07FE00
1C03FF00
3801FF80
7000FFC0
70007FE0
FF007FE0
FFC07FF0
FFE07FF0
FFE07FF0
FFE0FFF0
FFE0FFF0
7FE1FFF0
7FC1FFE0
3FC3FFE0
1F03FFC0
0007FF80
0007FF00
000FFE00
000FF800
001FF000
001FC000
003F0000
003E0C00
007C0400
00780400
00700400
00600400
00600400
00200800
00301800
00183000
000FC000
00000000
00000000
00000000
00020000
00070000
00078000
000F8000
001FC000
007FF000
01FFFC00
01FFFC00
007FF000
001FC000
000F8000
000F8000
00070000
00020000
ENDCHAR
STARTCHAR 0040
ENCODING 64
SWIDTH 791 0
DWIDTH 57 0
BBX 50 51 3 -1
BITMAP
000007FF000000
00007FFFF00000
0003FFFFFC0000
000FFFFFFF0000
001FFFFFFFC000
007FFC007FE000
00FFE0000FF000
01FF800003F800
03FE000000FC00
03FC0000007E00
07F80000003F00
0FF00008001F00
0FE0003C001F80
1FC000FF000F80
1F8003FFC00F80
3F800FFFF80FC0
3F003DFFFE07C0
3F00FCFFF007C0
7F01FC3FE007C0
7E01FC1FE007C0
7E03FC1FE007C0
7E03FC1FE007C0
7E03FC1FE007C0
FE03FC1FE007C0
FC03FC1FE007C0
FC03FC1FE00FC0
FC03FC1FE00F80
FC03FC1FE01F80
FC03FC1FE03F00
7E03FC1FE03F00
7E03FC1FE07E00
7E03FC1FE0FC00
7E03FC1FF0FC00
7E03FE3FF1F800
3F01FFCFFFF000
3F01FF0FFFE000
3F80FE07FF8000
1F807803F80000
1FC03000C00000
0FC00000000000
0FE00000000000
07F00000000000
03F80000000000
01FC0000008000
00FF0000038000
007FC0001FC000
003FF800FF8000
000FFFFFFE0000
0003FFFFF80000
00007FFFC00000
000007FE000000
ENDCHAR
STARTCHAR 0041
ENCODING 65
SWIDTH 750 0
DWIDTH 54 0
BBX 52 51 1 -1
BITMAP
003FE0010001F0
00FFFC01000F80
03FFFF00807E00
041FFF80C1FE00
1807FFC043FC00
2003FFE047FC00
2003FFF04FFC00
6001FFF07FFC00
6001FFF07FFC00
7000FFF83FFC00
FC00FFF83FFC00
FE00FFF83FFC00
FF80FFF83FFC00
FFC0FFF83FFC00
FFE0FFFC3FFC00
FFF0FFFC3FFC00
FFF07FFC3FFC00
FFF87FFC3FFC00
FFF87FFC3FFC00
FFF87FFC3FFC00
FFFC7FF83FFC00
7FFC7FF83FFC00
3FFC7FF83FFC00
1FFC7FF83FFC00
07F87FF83FFC00
01F87FF03FFC00
00F87FF03FFC00
00707FE03FFC00
0030FFC03FFC00
0060FF803FFC00
00C0FE003FFC00
0300FC003FFC00
0C00F0003FFC00
0001C0003FFC00
000300003FFC00
000FC0003FFC00
001FF8003FFC00
003FFE007FFC00
007FFF00BFFC00
00FFFF813FFC10
01FFFFE63FFC10
03FFFFEC3FFE60
07FFFFF83FFFC0
0E0FFFF03FFF00
0C03FFE03FFE00
1800FFC01FFC00
10007F801FF800
30003F000FF000
00001E0007E000
00001C0003C000
00000000008000
ENDCHAR
STARTCHAR 0042
ENCODING 66
SWIDTH 819 0
DWIDTH 59 0
BBX 55 51 1 -1
BITMAP
000FF0001FE000
007FFE00FFF800
01FFFF81FFFC00
030FFFC31FFE00
0C07FFE20FFF00
1803FFF40FFF00
3801FFF407FF80
3801FFFC07FF80
7C00FFFC07FF80
7E00FFFC03FF80
FF00FFFC03FF80
FF80FFFC03FFC0
FFC07FFC03FFC0
FFE07FFC01FFC0
FFE07FFC01FFC0
FFF07FFC00FFC0
FFF07FFC007FF0
7FF87FFC000FFE
7FF87FFC000780
3FF87FFC007800
3FF87FFC03FE00
1FF87FFC1FFF00
0FF87FFDFFFF80
07F07FFFFFFFC0
03F07FF87FFFE0
01F0FFF01FFFF0
00E0FFE007FFF0
00C0FFC003FFF8
0180FF8001FFF8
0700FE0000FFF8
3C00FC00007FF8
0000F000003FF8
0000C000003FF8
001FE000001FF8
007FF800000FF0
01FFFE00000FF0
03FFFF00000FF0
07FFFF800007E0
0FFFFFE00007C0
1FFFFFF00007C0
187FFFF8000780
303FFFFE000700
200FFFFF000E00
2007FFFF800C00
2001FFFFE01800
0000FFFFF87000
00007FFFFFC000
00001FFFFF8000
00000FFFFE0000
000003FFF80000
0000007F800000
ENDCHAR
STARTCHAR 0043
ENCODING 67
SWIDTH 722 0
DWIDTH 52 0
BBX 52 51 2 0
BITMAP
0000FF80030000
0007F860070000
001FF0100F8000
007FE0083F8000
00FFC0087FC010
01FFC008FFE030
03FF8005FFF860
07FF8006FFFFE0
0FFF000C7FFFC0
1FFF00183FFF80
1FFF00381FFF00
3FFF007C07FE00
3FFF00FE01F800
7FFE01FE000000
7FFE03FF000000
7FFE03FF800000
FFFE07FF800000
FFFE07FFC00000
FFFE07FFE00000
FFFE07FFE00000
FFFE07FFF00000
FFFE07FFF80000
FFFE07FFF80000
FFFE03FFFC0000
FFFE03FFFE0000
FFFE03FFFE0000
FFFE01FFFE0000
FFFE00FFFF0000
FFFE00FFFF0000
FFFE107FFF0000
FFFE107FFF0000
7FFE103FFF8000
7FFE181FFF8000
7FFE081FFF0060
7FFE080FFF0060
3FFE0C0FFF0040
3FFF0407FE0040
1FFF0607FE00C0
1FFF0203FC0080
0FFF0107F80180
07FF8087E00100
03FF807F800300
01FFC000000600
00FFC000000C00
007FE000001800
003FF000003000
001FF80000E000
0007FE00038000
0001FFC01F0000
00007FFFF80000
000003FF800000
ENDCHAR
STARTCHAR 0044
ENCODING 68
SWIDTH 777 0
DWIDTH 56 0
BBX 53 51 1 -1
BITMAP
00003FFC000000
0003FFFFC00000
001FFFFFF80000
007FFFFFFE0000
00FFFFFFFF8000
03FFFFFFFFC000
07FFFFFFFFE000
0FFFFFFFFFF800
1FFFFFFFFFFC00
1FFFFFFFFFFE00
3FFFFFFFFFFF00
7FFFFFFFFFFF00
7FFC0303FFFF80
7F8006003FFFC0
FE00060007FFC0
F8000F0001FFE0
F0000FC0007FE0
E0001FF0003FE0
E0001FFC000FF0
C0003FFF0007F0
C0003FFF8003F0
C0007FFFC001F8
40007FFFE000F8
40007FFFF00078
60007FFFF80078
30003FFFF80038
18003FFFF80038
0E061FFFF80038
03F80FFFF80018
000003FFF80018
000001FFF00018
0000007FF00018
0000001FE00010
0000000FC00010
00000003800010
0007F803000010
003FFF06000020
00FFFFE4000020
01FFFFF8000040
03FFFFFC0000C0
07FFFFFF000080
0FFFFFFFC00380
0FFFFFFFF80F00
183FFFFFFFFE00
100FFFFFFFFC00
1003FFFFFFF800
2000FFFFFFF000
20001FFFFFC000
000007FFFF8000
000001FFFC0000
0000003FE00000
ENDCHAR
STARTCHAR 0045
ENCODING 69
SWIDTH 777 0
DWIDTH 56 0
BBX 54 51 2 0
BITMAP
0000FF8000C000
0007F86003C000
001FE0180FE000
007FE00C3FF00C
00FFC004FFF818
01FF8003FFFFF8
03FF8004FFFFF0
07FF801C7FFFE0
0FFF00381FFF80
0FFF007C0FFF00
1FFF00FC01F800
3FFF01FE000000
3FFF03FF000000
3FFE03FF000000
7FFE07FF800000
7FFE07FFC01F00
7FFE07FFC067C0
FFFE07FFE083E0
FFFE07FFF107F0
FFFE07FFF10FF0
FFFE07FFF91FF0
FFFE03FFFD3FF8
FFFE03FFFD3FF8
FFFE03FFFF3FF8
FFFE01FFFF3FF0
FFFE01FFFF3FF0
FFFE00FFFF1FE0
FFFE007FFF0FC0
FFFE107FFF0000
FFFE103FFF0000
FFFE103FFF8000
7FFE101FFF8000
7FFE100FFF8000
7FFE080FFF0000
3FFE0807FF0000
3FFE0407FF0000
3FFE0403FE0000
1FFE0203FC0000
0FFF0107F80000
0FFF0087E00080
07FF007F800180
03FF0000000100
01FF8000000300
00FF8000000600
007FC000000C00
003FE000001800
001FF000002000
0007F80000C000
0001FC00030000
00003F801C0000
000003FFE00000
ENDCHAR
STARTCHAR 0046
ENCODING 70
SWIDTH 722 0
DWIDTH 52 0
BBX 50 66 1 -16
BITMAP
0007FC00000000
007FFFC0000000
01FFFFF800E000
03FFFFFE001C00
0FFFFFFF000600
1FFFFFFFC00180
3FFFFFFFF00080
3FFFFFFFFC0040
7FFFFFFFFE0040
7FFFFFFFFF8040
FE07FFFFFFE0C0
F800FFFFFFFFC0
E0001FFFFFFFC0
E00007FFFFFF80
C00001FFFFFF80
C000007FFFFF00
C000001FFFFC00
C0000003FFF800
40000001FFC000
60000403000000
30000806000000
3800300E00FC00
1C00601E037F00
0701C03E047F80
01FE007F08FFC0
0000007F08FFC0
000000FF89FFC0
000000FF89FFC0
000001FFC9FFC0
00FE01FFE9FF80
03FF81FFFCFF00
07FFE1FFFC3E00
0E3FF1FFFC0000
181FF1FFFE0000
301FF9FFFF0000
203FF8FFFF0000
603FFCFFFF8000
407FFCFFFFC000
C07FFC7FFFE000
00FFFC7FFFE000
01FFFC3FFFF000
01FFFC1FFFF000
03FFF80FFFF800
03FFF807FFF800
07FFF807FFFC00
07FFF003FFFC00
07FFF001FFFC00
0FFFE000FFFC00
0FFFC0007FFC00
0FFFC0007FFC00
0FFF80003FFC00
0FFF80003FFC00
0FFF00001FF800
0FFF00001FF800
07FF00001FF800
07FE00001FF000
03FE00001FF000
03FE00001FE000
01FE00001FC000
00FE00003F8000
007F00003F0000
003F00007E0000
000F8000F80000
0003E003E00000
0000F80F800000
00001FF8000000
ENDCHAR
STARTCHAR 0047
ENCODING 71
SWIDTH 875 0
DWIDTH 63 0
BBX 58 51 2 -1
BITMAP
00003FF000000000
0001F80C0C007C00
0007E0033003C000
001FC001C00F8000
003FC003601F0000
007F8006307FC000
00FF801C307FF000
01FF003818FFF800
03FF007800FFFC00
07FF007C01FFFC00
0FFE00FC01FFFC00
0FFE01FE00FFFC00
1FFE03FE00FFFC00
1FFE03FF007FFC00
3FFE07FF003FF800
3FFE07FF803FF000
3FFE07FF801FE000
7FFE07FFC01F8000
7FFE0FFFE03F0000
7FFC0FFFE07FF000
7FFC07FFF0FFFC00
7FFC07FFFBFFFE00
FFFC07FFFE1FFF00
FFFC07FFFC1FFF80
FFFC03FFFC0FFF80
FFFC03FFFE0FFFC0
FFFC03FFFE0FFFC0
FFFC01FFFF0FFFC0
7FFC01FFFF0FFFC0
7FFC00FFFF0FFFC0
7FFE00FFFF0FFFC0
7FFE007FFF0FFFC0
7FFE207FFF0FFFC0
3FFE203FFF0FFFC0
3FFE103FFF0FFFC0
3FFE101FFF0FFFC0
1FFE101FFE0FFF80
1FFE080FFE0FFF80
0FFF0807FC0FFF00
07FF0407F80FFF00
07FF0207F00FFE00
03FF8107E00FFC00
01FF80FF001FF800
00FFC000001FF000
007FC000003FE000
001FE000003FC000
000FF000007F0000
0003F80001FE0000
0000FE0003F80000
00001F803FC00000
000000FFF8000000
ENDCHAR
STARTCHAR 0048
ENCODING 72
SWIDTH 833 0
DWIDTH 60 0
BBX 56 66 1 -15
BITMAP
00000001800000
00000007800000
0000001FC00000
0000007FC00040
000001FFE00080
000007FFF00100
000039FFF80300
0000E0FFFE0E00
0003C0FFFFFC00
000F807FFFF800
003F007FFFF000
007F003FFFE000
00FF001FFFC000
01FF000FFF0000
03FF0001F80000
03FF8000000000
03FF8000000000
03FFC0003FE000
03FFC000FFFC00
03FFE003FFFF00
03FFE007FFFFC0
03FFF01FFFFFE0
03FFF87FFFFFF0
03FFF8C07FFFF8
01FFFF001FFFF8
01FFFE0007FFFC
01FFFF0003FFFC
00FFFF0001FFFE
007FFF8000FFFE
007FFFC000FFFF
003FFFC0007FFF
003FFFE0007FFF
001FFFE0003FFF
1E0FFFE0003FFF
3F8FFFE0003FFF
7FC7FFE0001FFF
FFE3FFE0001FFF
FFE3FFE0001FFF
FFE1FFC0001FFE
FFE1FFC0001FFE
FFE0FF80001FFC
FFC0FF00001FFC
7F80FE00001FF8
7F80FC00001FF8
3E01F800001FF0
1E03E000003FE0
0F0780FC003FC0
01FE07FF803F80
00001FFFC07F00
00003FFFE07C00
00007FFFF0F800
00007FFFF1E000
0000FFFFFB8000
0000FFFFFE0000
0001E0FFF00000
0001803FC00000
0001001F000000
0001000E000000
00010008010000
00010000030000
00008000060000
000080000C0000
00004000180000
00003000600000
00000C03800000
000003FE000000
ENDCHAR
STARTCHAR 0049
ENCODING 73
SWIDTH 652 0
DWIDTH 47 0
BBX 44 53 1 -2
BITMAP
0003F0000400
001FFE000300
007FFFC00180
00FFFFF000C0
01FFFFFC0040
03FFFFFF0060
07FFFFFFC060
0FFFFFFFF8E0
0F07FFFFFFE0
1C00FFFFFFE0
18003FFFFFE0
10000FFFFFC0
100003FFFFC0
100000FFFF80
1000003FFF00
10000007FE00
08000001F000
08000000FE00
04002003F180
0300C00FE0C0
00FF000FE060
0000001FE020
0000003FF010
0000003FF010
0000007FF000
0000007FF800
0000007FF800
0000007FFC00
0000007FFC00
0000007FFE00
0000007FFE00
0000003FFE00
03F0003FFF00
0FFC003FFF00
1FFF001FFF80
3FFF801FFF80
7FFFC00FFF80
67FFC00FFFC0
C3FFC007FFC0
C1FFE007FFC0
81FFE007FFC0
81FFE003FFC0
80FFF003FFC0
80FFF001FF80
807FF001FF80
C07FF800FF80
003FF800FF00
003FFC00FE00
001FFC00FC00
000FFE00F800
0003FE01E000
0000FF878000
00001FFC0000
ENDCHAR
STARTCHAR 004A
ENCODING 74
SWIDTH 652 0
DWIDTH 47 0
BBX 48 66 -3 -16
BITMAP
0000FE000000
0007FFC00000
001FFFF00000
007FFFFC0000
00FFFFFE0000
01FFFFFF8000
03FFFFFFC000
03FFFFFFE002
0787FFFFF802
0E01FFFFFC02
0C007FFFFE02
08001FFFFF86
18000FFFFFCE
100007FFFFFC
100001FFFFFC
100000FFFFF8
1000003FFFF8
1000001FFFF0
1000000FFFE0
08000003FFC0
080000007E00
0C0000000000
040000000000
020002000FE0
01800C003F18
00E03800FE04
003FC001FE02
00000003FF02
00000003FF81
00000007FF81
00000007FFC1
0000000FFFC0
0000000FFFE0
0000000FFFE0
0000000FFFF0
0000000FFFF0
00000007FFF8
00000007FFF8
00000007FFFC
00000003FFFC
00000003FFFE
01FC0001FFFE
0FFF0001FFFE
1FFF8000FFFF
3FFFC0007FFF
7FFFE0007FFF
67FFF0003FFF
C3FFF0003FFF
83FFF8001FFF
83FFF8001FFF
81FFF8000FFF
81FFFC000FFF
81FFFC0007FF
40FFFC0007FE
40FFFE0003FE
007FFE0003FC
007FFE0001FC
003FFF0001F8
003FFF0001F0
001FFF8001E0
000FFF8001C0
0007FFC00300
0003FFE00600
0001FFF81800
00007FFFE000
000007FE0000
ENDCHAR
STARTCHAR 004B
ENCODING 75
SWIDTH 708 0
DWIDTH 51 0
BBX 49 51 1 -1
BITMAP
00000FFF000000
0000FF00F00000
0007F8000C0000
001FE000030000
007FC000018000
01FF800000C000
03FF0000002000
07FE007F801000
0FFE01FFF01800
1FFE07FFF80C00
1FFC0FFFFE0400
3FFC1FFFFE0600
3FFC1FFFFF0200
3FFC3FFFFF8300
7FFC3C1FFF8100
7FFC700FFFC100
7FFC6007FFC180
7FFC6003FFC080
7FFE4003FFE080
7FFE4001FFE080
7FFE4001FFE080
7FFF4001FFE080
3FFFC001FF0000
3FFFC007C00000
3FFFC07FC00000
1FFFEFFFF00000
1FFFFBFFFC0000
0FFFE03FFE0000
07FFF01FFE0000
07FFF81FFE0000
03FFF80FFF0000
01FFFC0FFF0000
00FFFC0FFF0000
007FFC0FFF0000
003FFE0FFF0000
001FFE0FFF0000
1F0FFE0FFF0000
7F87FE0FFF0000
7FC3FE0FFF0000
FFE1FE0FFF0000
FFE0FE0FFF8080
FFE07E0FFFC300
FFE07C0FFFFE00
FFE03C07FFFC00
7FE03C07FFF000
7FC03807FFE000
3FC03003FFC000
1FC07001FF0000
0FC0E000FE0000
03E380003C0000
007C0000080000
ENDCHAR
STARTCHAR 004C
ENCODING 76
SWIDTH 583 0
DWIDTH 42 0
BBX 40 51 0 -1
BITMAP
0003FF8000
001F00F000
0078003C00
01F0001F00
03E0000FC0
07E00007E0
0FE00007F0
1FC00007F8
1FE00007F8
3FE00007FC
3FF00007FC
3FF0000FFC
3FF8001FFC
7FFC001FFC
7FFC003FFC
7FFE007FFC
3FFF007FFC
3FFF80FFFC
3FFF80FFFC
1FFFC1FFF8
1FFFE1FFF8
0FFFE3FFF0
07FFE3FFF0
03FFE1FFE0
01FFE1FFC0
00FFE1FFC0
007FE1FF81
003FC0FF01
001FC07F02
000F803E04
000F001F18
001C0007E0
0038000000
0070000000
00FC000000
03FF000000
07FFC00000
0FFFF00002
1FFFFC0006
3FFFFE0006
33FFFF800E
60FFFFE00C
407FFFF83C
403FFFFFF8
C00FFFFFF8
0007FFFFF0
0003FFFFE0
0001FFFFC0
00007FFF80
00001FFE00
000007F800
ENDCHAR
STARTCHAR 004D
ENCODING 77
SWIDTH 1013 0
DWIDTH 73 0
BBX 73 51 0 -1
BITMAP
001FF0003F8001FC0000
00FFFC01FFF007FF0000
01FFFF03FFF81FFFC000
07FFFF83FFFC31FFC000
0C1FFFC47FFE61FFE000
1807FFE43FFF40FFE000
1003FFFC1FFF40FFE000
3001FFF81FFFC0FFE000
3001FFF81FFF80FFF000
7800FFF80FFF80FFF000
7C00FFF80FFF80FFF000
7F00FFFC0FFF80FFF000
FF807FFC0FFF807FF000
FFC07FFC0FFF807FF000
FFE07FFC0FFF807FF000
FFF87FFC0FFF803FF000
FFF87FFC0FFF801FF800
FFFC7FFE0FFF8007FF00
FFFE7FFE0FFF80003F00
7FFE7FFE0FFF8001F000
7FFE7FFE0FFF800FC000
3FFE7FFE07FF803F8000
1FFE7FFE07FF807F8000
0FFE3FFE07FF80FF8000
07FE3FFE07FF81FF0000
03FE3FFE07FF83FF0000
00FC3FFE07FF83FF0000
003C3FFE07FF83FF8000
00383FFC07FF83FF8000
00603FFC07FF07FF8000
03803FF807FF07FF8000
3C003FF007FE07FF8000
00003FF007FE07FF8000
00003FE007FC07FF8000
00003FC007FC07FF8000
00603F8407F807FF8000
00F03F0E07F007FF8000
00FC3F1F07F007FF8000
01FE3E1F87E007FF8000
03FF3C3FC7C007FFC000
07FFB87FF78003FFC080
07FFF8FFFF0003FFE300
0FFFF0FFFE0003FFFE00
17FFE17FFE0003FFFC00
23FFC23FFC0001FFF000
61FF841FF80001FFE000
40FF8C0FF00000FFC000
803F0807E000007F0000
801E1003E000003E0000
000C2001C000001C0000
00000000800000080000
ENDCHAR
STARTCHAR 004E
ENCODING 78
SWIDTH 763 0
DWIDTH 55 0
BBX 56 51 0 -1
BITMAP
0007FC0007F000
003FFF801FFE00
00FFFFE07FFF00
01FFFFF047FF80
0307FFF887FFC0
0601FFFC83FFC0
0400FFFF03FFE0
0C007FFF03FFE0
1E007FFF01FFE0
1F003FFF01FFE0
1F803FFF01FFE0
3FC03FFF01FFE0
3FE03FFF01FFE0
3FF01FFF00FFE0
3FF81FFF00FFF0
3FFC1FFF807FF0
3FFC1FFF803FF0
3FFE1FFF801FFC
3FFE1FFF8000FF
1FFF1FFF8003F0
1FFF1FFF801FC0
0FFF1FFF807F80
07FF0FFF81FF80
03FF0FFF87FF00
01FF0FFF87FF00
00FE0FFF8FFF00
003E0FFF8FFE00
001C0FFF0FFE00
00180FFF1FFE00
00300FFF1FFE00
00E00FFE1FFE00
0F000FFE1FFE00
00000FFE1FFE00
00000FFC1FFE00
00100FF81FFE00
00380FF81FFE00
007C0FF01FFE00
00FE0FE01FFE00
01FF0FC01FFE00
03FF8F801FFF00
07FFCE001FFF01
0FFFEC001FFF02
1FFFF8000FFF8C
1BFFF0000FFFF8
31FFE0000FFFE0
60FFC00007FFC0
807F800003FF80
003F000001FE00
001E000000FC00
000C0000007800
00000000002000
ENDCHAR
STARTCHAR 004F
ENCODING 79
SWIDTH 805 0
DWIDTH 58 0
BBX 55 51 0 -1
BITMAP
000003FF800000
00003FFFFC0000
0001CFFFFF0000
00038FFFFFE000
000F0FFFFFF000
001F0FFFFFFC00
007F0FFFFFFE00
007F0FFFFFFF00
00FF0FFFFFFF80
01FF8FFFFFFFC0
03FF87FFFFFFC0
03FF83FFFFFFE0
03FFC1FFFFFFF0
07FFC0FFFFFFF0
07FFE01FFFFFF8
07FFE000003FF8
07FFE0000007F8
07FFF0000001FC
07FFF00000007C
03FFF00000003C
03FFF80000001C
03FFF80000001E
01FFF80000000E
C1FFF80000000E
40FFF80000000E
40FFF800000006
407FF000000006
207FF000000006
203FE000000006
103FC000000006
087F0000000006
07F80000000006
00000000000004
001FC00000000C
00FFFC0000000C
01FFFF00000008
07FFFFC0000018
0FFFFFE0000018
1FFFFFF8000030
3FFFFFFE000070
30FFFFFF800060
601FFFFFE001C0
400FFFFFFC07C0
C003FFFFFFFF80
8001FFFFFFFF00
0000FFFFFFFE00
00003FFFFFF800
00001FFFFFF000
000007FFFFC000
000001FFFF0000
0000003FF00000
ENDCHAR
STARTCHAR 0050
ENCODING 80
SWIDTH 805 0
DWIDTH 58 0
BBX 55 66 0 -16
BITMAP
000FF80007F800
007FFF801FFF00
01FFFFE03FFF80
0703FFF063FFC0
0C01FFF8C1FFC0
1800FFFC81FFE0
38007FFC81FFE0
3C007FFF81FFE0
7E003FFF81FFE0
7F003FFF01FFE0
FF803FFF01FFE0
FFC01FFF01FFE0
FFE01FFF01FFC0
FFF01FFF00FFC0
FFF81FFF00FFC0
FFFC1FFF00FFC0
FFFE1FFF007FC0
FFFE1FFF001FE0
7FFF1FFF0007FE
7FFF1FFF003F00
3FFF1FFF00FC00
3FFF1FFF01FE00
1FFF1FFF03FF80
0FFE1FFF07FFE0
07FE1FFF07FFF0
01FC1FFF07FFF8
00FC1FFF07FFFC
00381FFF07FFFE
00301FFF07FFFE
00401FFF03FFFE
07801FFF01FFFE
0C001FFF00FFFE
0007FFFF007FFE
001FFFFF001FFE
003FFFFF000FFC
007FFFFF0003FC
00FFFFFF0001FC
01FFFFFFC000F8
01FFFFFFE00078
03FFFFFFF80070
03FFFFFFFC0070
0383FFFFFF00E0
02007FFFFF80C0
06003FFFFFE180
04001FFFFFFF80
00001FFFFFFF00
00001FFFFFFE00
00000FFFFFF800
00000FFFFFF000
00000FFEFFE000
00000FFC1F0000
00000FFC000000
00000FFC000000
00000FF8000000
000007F8000000
000007F8000000
000007F8000000
000007F0000000
000007F0000000
000003F0000000
000003E0000000
000003E0000000
000003E0000000
000001C0000000
000001C0000000
00000080000000
ENDCHAR
STARTCHAR 0051
ENCODING 81
SWIDTH 902 0
DWIDTH 65 0
BBX 65 51 0 -1
BITMAP
000003FFC000000000
00003FFFFC00000000
0001DFFFFF80000000
00079FFFFFE0000000
001F1FFFFFF8000000
003E1FFFFFFC000000
007E1FFFFFFE000000
00FE1FFFFFFF000000
01FE1FFFFFFF800000
03FE1FFFFFFFC00000
03FF0FFFFFFFE00000
07FF0FFFFFFFE00000
07FF87FFFFFFF00000
0FFF81FFFFFFF80000
0FFFC01C001FF80000
0FFFC0000003FC0000
0FFFE0000000FC0000
0FFFE00000003C0000
0FFFF00000001C0000
0FFFF00000000E0000
07FFF00000000E0000
07FFF8000000060000
03FFF8000000060000
83FFF8000000060000
81FFF8000000020000
81FFF8000000020000
40FFF8000000020000
40FFF0000000020000
607FF0000000020000
207FE0000000020000
103FC0000000020000
103F80000000020000
0C7E00000000060000
03F800000000060000
0007F8000000060000
001FFF0000000E0080
007FFFC000000E0080
01FFFFF000001E0080
03FFFFFE0000360080
07FFFFFF8000770080
0FFFFFFFE000EF0180
0FFFFFFFFC07CF8380
1C3FFFFFFFFFCFFF80
100FFFFFFFFF8FFF80
2003FFFFFFFF0FFF80
2001FFFFFFFE0FFF00
40007FFFFFFC0FFF00
00001FFFFFF007FF00
000007FFFFC007FE00
000000FFFF0003FC00
0000001FF80001F000
ENDCHAR
STARTCHAR 0052
ENCODING 82
SWIDTH 819 0
DWIDTH 59 0
BBX 56 51 1 -1
BITMAP
000FF0000FE000
007FFE007FFC00
01FFFF80FFFE00
070FFFC187FF00
0C03FFE187FF80
1C01FFF303FF80
3801FFF303FFC0
3800FFFB03FFC0
7C00FFFA03FFE0
7E00FFFE03FFE0
FF007FFE03FFE0
FF807FFE03FFE0
FFC07FFE03FFE0
FFE07FFE01FFE0
FFF07FFE01FFE0
FFF07FFE01FFE0
FFF83FFE00FFE0
7FFC3FFE007FE0
7FFC3FFE003FE0
7FFE3FFE000FF0
3FFE3FFE0003BE
1FFE3FFE03FE00
0FFE3FFFFFFF00
0FFE3FFFFFFF00
07FE3FFE1FFF80
03FC3FFE0FFF80
00FC3FFE0FFF80
00783FFE0FFF80
00703FFE0FFF80
00E03FFE0FFF80
3F003FFE0FFF80
30003FFC0FFF80
00003FFC0FFF80
00003FFC0FFF80
01003FFC0FFF80
1FE03FF80FFF80
3FF03FF80FFF80
3FF03FF80FFF80
7FF83FF00FFF80
7FF83FF00FFF80
7FF83FE00FFF80
7FF83FE00FFF81
7FF03FC00FFF83
7FF07FC00FFF8C
3FC07F8007FFF8
3E007F0007FFE0
1E007E0007FFC0
0E00FC0003FF00
0701F00001FE00
03C7C000007800
007C0000001000
ENDCHAR
STARTCHAR 0053
ENCODING 83
SWIDTH 763 0
DWIDTH 55 0
BBX 50 51 2 -1
BITMAP
00003FE0000000
0001FFFC000000
0007FFFF000000
001FFFFFC00000
003FFFFFF00040
007FFFFFFC00C0
00FFFFFFFF0080
01FFFFFFFFC180
03FFFFFFFFF300
07FFFFFFFFFF00
0FE03FFFFFFE00
0F8003FFFFFC00
1E0000FFFFF800
1C00001FFFF000
3807F003FFE000
30181C007F0000
20600000000000
60400007FC0000
4080003FFF8000
408000FFFFE000
410003FFFFF800
C10007FFFFFC00
81001FFFFFFE00
81807FFFFFC700
8080FFFFFF8100
80C3FFFFFE0180
80FFFFFFFC0080
C07FFFFFF00080
407FFFFFE00080
403FFFFF800080
601FFFFE000080
600FFFFC000080
7003FFE0000180
3800FF00000180
3C000000000380
3F000000000F80
1FC00000003F00
1FF0000001FF00
0FFF80007FFF00
0FFFFFFFFFFE00
07FFFFFFFFFE00
07FFFFFFFFFC00
03FFFFFFFFF800
01FFFFFFFFF000
00FFFFFFFFF000
007FFFFFFFC000
003FFFFFFF8000
000FFFFFFF0000
0003FFFFFC0000
0000FFFFF00000
00000FFF000000
ENDCHAR
STARTCHAR 0054
ENCODING 84
SWIDTH 694 0
DWIDTH 50 0
BBX 49 52 0 -1
BITMAP
000FF800000000
007FFF80000000
01FFFFE0000000
03FFFFF8008000
07FFFFFE006000
0FFFFFFF001800
1FFFFFFFC00400
3FFFFFFFE00200
3FFFFFFFF80300
7FFFFFFFFC0100
7E07FFFFFF0100
7800FFFFFF8100
70001FFFFFE100
E0000FFFFFF100
E00003FFFFFF00
C000017FFFFF00
C000033FFFFE00
C000078FFFFC00
40000FC3FFF800
60001FE0FFF000
60003FF81FC000
30007FFC000000
18047FFE000000
0E1CFFFF000000
03F8FFFF800000
0000FFFF800000
00007FFFC00000
00007FFFC00000
00003FFFC00000
00003FFFC00000
00000FFFC00000
000007FFC00000
000003FF800000
000001FF000000
003FC07E000000
01FFFC3C000000
03FFFF18000000
07FFFFE0000000
0FFFFFE0000080
1FFFFFF8000180
1FFFFFFE000100
3FFFFFFF000300
30FFFFFFE00600
301FFFFFF80E00
600FFFFFFFFC00
6003FFFFFFF800
4000FFFFFFF000
40007FFFFFE000
00001FFFFFC000
000007FFFF8000
000001FFFE0000
0000001FF00000
ENDCHAR
STARTCHAR 0055
ENCODING 85
SWIDTH 652 0
DWIDTH 47 0
BBX 48 51 -1 0
BITMAP
006000001000
00F800003000
01FC00007800
03FE00007C00
03FF0000FC00
07FF8001FE00
0FFF8003FF00
1FFFC007FFC0
3FFFC00FFFE0
7FFFC07FFFFC
FFFFC0FFFFFC
83FFC00FFFC0
03FFC007FFC0
03FFC007FF80
03FFC007FF80
03FFC007FF80
03FFC007FF80
03FFC007FF80
03FFC007FF80
03FFC007FF80
03FFC007FF80
03FFC007FF80
03FFC007FF80
03FFC007FF80
03FFC007FF80
03FFC007FF80
03FFC007FF80
03FFC007FF80
03FFC007FF80
03FFC007FF80
03FFC007FF80
03FFC007FF80
03FFC007FF80
03FFC007FF80
03FFC007FF80
03FFC007FF80
03FFC007FF80
03FFC00FFF80
03FFE01FFFC0
07FFF837FFC1
7FFFFEE7FFE7
3FFFFF87FFFE
07FFFF07FFF8
03FFFE03FFF0
00FFFC03FFE0
007FF801FFC0
001FF001FF80
000FE0007F00
000780003E00
000300001C00
000000000800
ENDCHAR
STARTCHAR 0056
ENCODING 86
SWIDTH 805 0
DWIDTH 58 0
BBX 55 51 1 -1
BITMAP
000FFC000FE000
007FFF803FF800
01FFFFE07FFE00
0707FFF0C7FF00
0E01FFF987FF00
1C00FFF903FF80
3C007FFD03FFC0
3C007FFD03FFC0
7E003FFF03FFC0
7F003FFF03FFC0
FF803FFF01FFE0
FFC03FFF01FFE0
FFE01FFF01FFC0
FFF01FFF00FFC0
FFF81FFF00FFC0
FFFC1FFF007FC0
7FFC1FFF003FC0
7FFE1FFF001FE0
3FFE1FFF0030FE
3FFE1FFF00E000
1FFE1FFF03F000
0FFE1FFE07FC00
03FE1FFE0FFE00
01FC1FFE1FFF00
00FC1FFC1FFF80
00781FF81FFFE0
00703FF01FFFF0
00E03FE01FFFF0
03803F800FFFF8
3C003E000FFFFC
0000380007FFFC
0000600003FFFC
000FF80001FFFC
007FFE00007FFC
01FFFF80003FFC
03FFFFE0001FFC
07FFFFF00007F8
0FFFFFF80003F8
0C3FFFFE0001F0
180FFFFF0001F0
1007FFFF8000E0
3001FFFFC000E0
2000FFFFF000C0
00007FFFF80180
00003FFFFC0300
00000FFFFF0C00
000007FFFFF800
000003FFFFF000
000001FFFFC000
0000007FFF0000
0000000FF00000
ENDCHAR
STARTCHAR 0057
ENCODING 87
SWIDTH 1041 0
DWIDTH 75 0
BBX 72 51 1 -1
BITMAP
000FF800F8003FC000
007FFF01FE01FFF800
0187FF83FE061FFE00
0301FFC7FF0C07FF00
0600FFE7039807FF80
0C00FFFC01B003FFC0
1C007FF8006003FFC0
3C007FF800E003FFE0
3E007FFC01E003FFE0
7F007FFC03F003FFE0
7F807FFC03F003FFE0
FFC03FFE07F801FFE0
FFE03FFE0FF801FFE0
FFF03FFE0FFC00FFE0
FFF83FFE1FFE00FFE0
FFFC3FFE1FFE003FF0
FFFE3FFE1FFF000FFF
FFFE3FFE1FFF800600
7FFF3FFE3FFF801C00
7FFF3FFE3FFFC07800
3FFF3FFE3FFFC0FC00
3FFF3FFE1FFFC1FF00
1FFF3FFC1FFFE3FF80
07FF3FFC1FFFE3FFC0
03FE3FFC0FFFE7FFE0
01FE3FF80FFFE7FFF8
00FC3FF807FFE7FFFC
00383FF003FFE7FFFC
00383FF001FFC7FFFE
00707FE001FFC3FFFE
00C07FC000FF83FFFF
01807F00007F01FFFF
0E007E00007E00FFFF
0000F000003C007FFF
007F80000038003FFF
01FFE000003C000FFF
03FFF800003F8007FE
07FFFC00007FE003FE
0FFFFF0000FFF001FE
1FFFFFC001FFFC007C
1FFFFFE003FFFE003C
3FFFFFF807FFFF0018
3FFFFFFE1FFFFF8010
70FFFFFFF9FFFFE020
603FFFFFF0FFFFF840
400FFFFFE07FFFFF80
4007FFFFC01FFFFF00
4001FFFF000FFFFE00
00007FFE0007FFFC00
00001FF80001FFF000
000003E000003F8000
ENDCHAR
STARTCHAR 0058
ENCODING 88
SWIDTH 652 0
DWIDTH 47 0
BBX 49 51 -1 -1
BITMAP
0003800007F000
0007F0000FFC00
000FFC0038FE00
001FFF0030FF00
003FFF8061FF80
007FFFC0C1FF80
00FFFFE0C3FF80
01FFFFF083FF80
03FFFFF987FF80
07FFFFF907FF80
0E07FFFD07FF80
1801FFFF03FF80
3000FFFF03FF00
20007FFF01FE00
00007FFF007C00
00003FFE000000
00003FFE000000
00003FFE000000
00001FFE001000
00001FFE001000
00001FFE001000
00001FFE003000
00001FFE007000
001FFFFFFFF000
007FFFFFFFE000
00FFFFFFFFE000
00FFFFFFFFC000
00FFFFFFFF8000
01FFFFFFFF0000
01C01FFE000000
01001FFE000000
01001FFE000000
01001FFE000000
00001FFE000000
00001FFF000000
00001FFF000000
0F801FFF000000
3FC01FFF800000
7FE01FFF800300
7FF01FFFC00600
FFF03FFFE00800
FFF027FFF03000
FFF027FFFFE000
FFF023FFFFC000
FFF041FFFF0000
7FE040FFFE0000
7FE0807FFC0000
3F81003FF00000
1F02000FE00000
0F9C0003C00000
03E00000000000
ENDCHAR
STARTCHAR 0059
ENCODING 89
SWIDTH 763 0
DWIDTH 55 0
BBX 50 66 1 -16
BITMAP
000FF0007E0000
007FFE01FF8000
0187FF827FC000
0603FFC43FE000
0401FFE41FF000
0800FFF81FF800
18007FF81FF800
38007FF81FFC00
3C007FF81FFC00
7E007FF81FFE00
7F003FFC1FFE00
FF803FFC0FFF00
FFC03FFC0FFF00
FFE03FFC0FFF00
FFF03FFC0FFF00
FFF03FFC0FFF80
FFF83FFE0FFF80
FFF83FFE0FFF80
FFFC3FFE0FFF80
7FFC3FFE0FFF80
7FFC3FFE0FFFC0
3FFC3FFE0FFFC0
3FFC3FFE0FFFC0
1FFC3FFE0FFFC0
0FFC3FFC0FFFC0
07FC7FFC0FFFC0
01F87FFC0FFFC0
00F87FF80FFFC0
00707FF80FFFC0
00307FF00FFFC0
00207FE00FFFC0
00407F800FFFC0
01807F000FFFC0
0F00FC000FFFC0
0C00F0000FFFC0
0000C0000FFFC0
0007E0000FFFC0
003FFC000FFFC0
00FFFF000FFFC0
01FFFFC10FFF80
03FFFFE20FFF80
07FFFFF40FFF80
0FFFFFF80FFF80
0C1FFFF00FFF80
1803FFE00FFF80
3001FFC00FFF00
2000FF800FFF00
00007F001FFF00
00003E001FFE00
00001C001FFE00
000000001FFE00
000000001FFC00
000000001FFC00
001FC0001FF800
007FF0001FF800
00FFF8003FF000
01FFFC003FF000
01FFFC003FE000
01FFFC003FC000
01FFFC007F8000
01FFFC007F0000
00FFF800FE0000
007FF801F80000
003FE007E00000
000F003F800000
0000FFF0000000
ENDCHAR
STARTCHAR 005A
ENCODING 90
SWIDTH 611 0
DWIDTH 44 0
BBX 47 66 -5 -16
BITMAP
00001FFC0000
0000FFFF8000
0007FFFFF000
000F00FFF800
0018003FFE00
0030001FFF00
0060000FFF80
00C00007FFC0
00800003FFC0
01000003FFE0
01000003FFE0
01000001FFF0
02000001FFF0
02000001FFF0
02000001FFF0
0007C001FFF0
000FF001FFF0
001FF801FFF0
001FF801FFF0
003FF801FFF0
003FF801FFE0
003FF801FFE0
003FF003FFC0
001FE003FF80
001FC003FF00
000F0007FE00
0007800FF800
0003E03FC000
00007FF80000
0001E03F8000
00038007F000
00060003FC00
000C0001FF00
00180001FFC0
00100000FFE0
00300000FFF0
00200000FFF0
00200000FFF8
006000007FFC
004000007FFC
000000007FFC
000000007FFE
000000007FFE
000000007FFE
000000007FFE
03F000007FFE
0FFC00007FFE
1FFF00007FFE
3FFF80007FFE
67FFC0007FFE
63FFC0007FFE
43FFE0007FFE
C3FFE0007FFE
C3FFE0007FFC
C1FFE0007FFC
C1FFE0007FF8
C1FFE0007FF8
00FFE0007FF0
00FFE000FFF0
00FFE000FFE0
007FF000FFC0
003FF001FF80
001FF001FE00
0007F803F800
0001FC0FE000
00001FFE0000
ENDCHAR
STARTCHAR 005B
ENCODING 91
SWIDTH 333 0
DWIDTH 24 0
BBX 19 65 3 -15
BITMAP
FFFFE0
FFE000
FFC000
FFC000
FFC000
FFC000
FFC000
FFC000
FFC000
FFC000
FFC000
FFC000
FFC000
FFC000
FFC000
FFC000
FFC000
FFC000
FFC000
FFC000
FFC000
FFC000
FFC000
FFC000
FFC000
FFC000
FFC000
FFC000
FFC000
FFC000
FFC000
FFC000
FFC000
FFC000
FFC000
FFC000
FFC000
FFC000
FFC000
FFC000
FFC000
FFC000
FFC000
FFC000
FFC000
FFC000
FFC000
FFC000
FFC000
FFC000
FFC000
FFC000
FFC000
FFC000
FFC000
FFC000
FFC000
FFC000
FFC000
FFC000
FFC000
FFC000
FFC000
FFE000
FFFFE0
ENDCHAR
STARTCHAR 005C
ENCODING 92
SWIDTH 250 0
DWIDTH 18 0
BBX 19 51 0 0
BITMAP
F80000
F80000
F80000
FC0000
7C0000
7C0000
7E0000
3E0000
3E0000
3E0000
3F0000
1F0000
1F0000
1F8000
0F8000
0F8000
0F8000
0FC000
07C000
07C000
07C000
03E000
03E000
03E000
03F000
01F000
01F000
01F000
00F800
00F800
00F800
00FC00
007C00
007C00
007C00
007E00
003E00
003E00
003F00
001F00
001F00
001F00
001F80
000F80
000F80
000FC0
0007C0
0007C0
0007C0
0007E0
0003E0
ENDCHAR
STARTCHAR 005D
ENCODING 93
SWIDTH 333 0
DWIDTH 24 0
BBX 19 65 1 -15
BITMAP
FFFFE0
00FFE0
007FE0
007FE0
007FE0
007FE0
007FE0
007FE0
007FE0
007FE0
007FE0
007FE0
007FE0
007FE0
007FE0
007FE0
007FE0
007FE0
007FE0
007FE0
007FE0
007FE0
007FE0
007FE0
007FE0
007FE0
007FE0
007FE0
007FE0
007FE0
007FE0
007FE0
007FE0
007FE0
007FE0
007FE0
007FE0
007FE0
007FE0
007FE0
007FE0
007FE0
007FE0
007FE0
007FE0
007FE0
007FE0
007FE0
007FE0
007FE0
007FE0
007FE0
007FE0
007FE0
007FE0
007FE0
007FE0
007FE0
007FE0
007FE0
007FE0
007FE0
007FE0
00FFE0
FFFFE0
ENDCHAR
STARTCHAR 005E
ENCODING 94
SWIDTH 583 0
DWIDTH 42 0
BBX 31 21 6 27
BITMAP
001FE000
001FF000
003FF000
007FF800
007FF800
00FFFC00
00FFFE00
01FFFE00
01FEFF00
03FCFF00
07F87F80
07F83F80
0FF03FC0
0FE01FE0
1FE00FE0
3FC00FF0
3F8007F0
7F8003F8
7F0003FC
FE0001FC
FE0000FE
ENDCHAR
STARTCHAR 005F
ENCODING 95
SWIDTH 486 0
DWIDTH 35 0
BBX 35 4 0 -11
BITMAP
FFFFFFFFE0
FFFFFFFFE0
FFFFFFFFE0
FFFFFFFFE0
ENDCHAR
STARTCHAR 0060
ENCODING 96
SWIDTH 236 0
DWIDTH 17 0
BBX 12 10 2 43
BITMAP
FE00
7E00
7F00
7F00
7F00
7F80
0780
00C0
0060
0030
ENDCHAR
STARTCHAR 0061
ENCODING 97
SWIDTH 486 0
DWIDTH 35 0
BBX 32 37 3 0
BITMAP
0000C000
0001E000
0007F000
001FFC00
007FFF00
01FFFFC0
03EFFFF0
0FE7FFFE
1FE3FFF8
3FE1FFF0
7FE0FFE0
FFE0FFE0
FFE0FFE0
FFE0FFE0
FFE0FFE0
FFE0FFE0
FFE0FFE0
FFE0FFE0
FFE0FFE0
FFE0FFE0
FFE0FFE0
FFE0FFE0
FFE0FFE0
FFE0FFE0
FFE0FFE0
FFE0FFE0
FFE0FFE0
FFE0FFE0
FFE0FFF0
FFE1FFF1
FFF3FFFE
7FFC7FFC
7FF87FF8
3FF03FF0
3FE01FC0
0F800F80
07000700
ENDCHAR
STARTCHAR 0062
ENCODING 98
SWIDTH 486 0
DWIDTH 35 0
BBX 30 51 2 -1
BITMAP
00007800
001FE000
00FF8000
01FF0000
83FE0000
C7FE0000
4FFE0000
6FFC0000
3FFC0000
3FFC0000
1FFC0000
1FFC0000
1FFC0000
1FFC0180
1FFC03C0
1FFC0FE0
1FFC1FF0
1FFC3FF8
1FFCFFF8
1FFDFFFC
1FFE1FFC
1FFC1FFC
1FFC1FFC
1FFC1FFC
1FFC1FFC
1FFC1FFC
1FFC1FFC
1FFC1FFC
1FFC1FFC
1FFC1FFC
1FFC1FFC
1FFC1FFC
1FFC1FFC
1FFC1FFC
1FFC1FFC
1FFC1FFC
1FFC1FFC
1FFC1FFC
1FFC1FFC
1FFE1FFC
3FFF1FF8
FFFF9FF0
3FFFDFF0
0FFFFFC0
03FFFF00
01FFFC00
007FF000
003FC000
001F0000
000E0000
00040000
ENDCHAR
STARTCHAR 0063
ENCODING 99
SWIDTH 402 0
DWIDTH 29 0
BBX 26 38 3 0
BITMAP
00007000
0003F000
001FF800
00FFF800
07EFFC00
1FEFFC00
3FE7FE00
7FE7FE00
7FE7FF00
7FE3FF00
FFE3FF80
FFE1FF00
FFE1FC00
FFE1F800
FFE0E000
FFE08000
FFE00000
FFE00000
FFE00000
FFE00000
FFE00000
FFE00000
FFE00000
FFE00000
FFF00000
FFF00000
FFF80000
FFFC0040
7FFE0080
7FFF8300
3FFFFC00
3FFFF000
0FFFE000
07FF8000
03FE0000
00FC0000
00380000
00100000
ENDCHAR
STARTCHAR 0064
ENCODING 100
SWIDTH 486 0
DWIDTH 35 0
BBX 30 51 2 -1
BITMAP
00F80000
03800000
0E000000
1E000000
1F000000
1F800000
3FE00000
3FF80000
3FFF0000
3FFFE000
1FFFF800
1FFFFE00
1FFFFF80
0FFFFFC0
07FFFFE0
03FFFFF0
00FFFFF0
003FFFF8
000FFFF8
0008FFF8
00183FFC
1FF81FFC
1FF81FFC
1FF81FFC
1FF81FFC
1FF81FFC
1FF81FFC
1FF81FFC
1FF81FFC
1FF81FFC
1FF81FFC
1FF81FFC
1FF81FFC
1FF81FFC
1FF81FFC
1FF81FFC
1FF81FFC
1FF81FFC
1FF81FF8
1FFE1FF8
1FFF1FF8
3FFFDFF0
FFFFFFF0
3FFFFFC0
07FFFE00
01FFF000
007FC000
003F8000
000F0000
00060000
00020000
ENDCHAR
STARTCHAR 0065
ENCODING 101
SWIDTH 416 0
DWIDTH 30 0
BBX 27 38 3 0
BITMAP
00007000
0001F000
000FF800
003FFC00
01EFFC00
07EFFE00
0FE7FE00
1FE7FF00
3FE3FF80
7FE3FF80
7FE1FFC0
7FE0FFE0
7FE0FFC0
7FE07F00
FFE07E00
FFE03800
FFE07000
FFE0C000
FFE30000
FFE60000
FFF80000
FFF00000
FFE00000
FFF00000
FFF00000
7FF80000
7FFC0000
7FFE0020
3FFF00C0
3FFFC380
1FFFFE00
1FFFFC00
0FFFF800
07FFE000
01FFC000
007F0000
001E0000
00040000
ENDCHAR
STARTCHAR 0066
ENCODING 102
SWIDTH 333 0
DWIDTH 24 0
BBX 22 66 1 -16
BITMAP
00F810
03FE10
07FF10
07FF90
0FFFF0
0FFFF0
0FFFF0
0FFFE0
09FFE0
087FC0
080F80
0C0000
0C0000
0F0000
0FC000
0FF800
0FFFFC
0FFFFC
0FFFFC
1FFFFC
3FFFFC
FFFFFC
0FFF80
0FFF80
0FFF80
0FFF80
0FFF80
0FFF80
0FFF80
0FFF80
0FFF80
0FFF80
07FF80
07FF80
07FF80
07FF00
07FF00
07FF00
07FF00
07FF00
07FF00
03FF00
03FE00
03FE00
03FE00
03FE00
03FE00
03FC00
01FC00
01FC00
01FC00
01FC00
01F800
00F800
00F800
00F800
00F800
00F800
00F000
007000
007000
007000
007000
006000
002000
002000
ENDCHAR
STARTCHAR 0067
ENCODING 103
SWIDTH 486 0
DWIDTH 35 0
BBX 31 53 3 -15
BITMAP
00008000
0003C000
000FF000
001FF800
007FFE00
01FFFF80
03FFFFF0
0FEFFFFE
1FE7FFF8
3FE3FFF0
7FE0FFE0
FFE0FFE0
FFE0FFE0
FFE0FFE0
FFE0FFE0
FFE0FFE0
FFE0FFE0
FFE0FFE0
FFE0FFE0
FFE0FFE0
FFE0FFE0
FFE0FFE0
FFE0FFE0
FFE0FFE0
FFE0FFE0
FFE0FFE0
FFE0FFE0
FFE0FFE0
FFE0FFE0
FFE1FFE0
FFF37FE0
7FFE7FE0
7FF87FF0
3FF07FF8
3FE07FF8
1FC03FFC
07003FFC
02001FFE
00001FFE
00000FFE
00000FFE
0F8007FE
3FE007FE
3FF003FE
7FF003FC
7FF003FC
7FF003F8
7FF003F0
3FF007E0
3FE00FC0
1F001F80
0780FE00
00FFF000
ENDCHAR
STARTCHAR 0068
ENCODING 104
SWIDTH 486 0
DWIDTH 35 0
BBX 31 66 1 -16
BITMAP
0000FC00
001FC000
007F0000
01FF0000
83FE0000
87FE0000
4FFE0000
4FFE0000
3FFE0000
1FFE0000
1FFE0000
1FFE0000
1FFE0000
1FFE0040
0FFE01E0
0FFE03F0
0FFE07F0
0FFE1FF8
0FFE3FFC
0FFE7FFC
0FFFFFFC
0FFF1FFC
0FFE1FFE
0FFE0FFE
0FFE0FFE
0FFE0FFE
0FFE0FFE
0FFE0FFE
0FFE0FFE
0FFE0FFE
0FFE0FFE
0FFE0FFE
0FFE0FFE
0FFE0FFE
0FFE0FFE
0FFE0FFE
0FFE0FFE
0FFE0FFE
0FFE0FFE
0FFE0FFE
0FFE0FFE
1FFE0FFC
1FFE0FFC
3FFE0FFC
FFFFCFFC
3FFF0FFC
0FFC0FFC
07F80FFC
01F01FF8
00E01FF8
00401FF8
00001FF0
00001FF0
00001FE0
00001FE0
00003FC0
00003F80
00003F00
00007E00
00007C00
0000F800
0001E000
00038000
00060000
00180000
00200000
ENDCHAR
STARTCHAR 0069
ENCODING 105
SWIDTH 291 0
DWIDTH 21 0
BBX 20 51 1 -1
BITMAP
01F000
03FC00
07FE00
07FE00
0FFE00
07FE00
07FE00
07FC00
03F800
01F000
004000
000000
002000
00E000
01F000
03F800
07FC00
1FFE00
3FFF00
7FFFC0
CFFFC0
0FFF00
0FFF00
0FFF00
0FFF00
0FFF00
0FFF00
0FFF00
0FFF00
0FFF00
0FFF00
0FFF00
0FFF00
0FFF00
0FFF00
0FFF00
0FFF00
0FFF00
0FFF00
0FFF00
0FFF00
07FF00
07FF30
07FFE0
07FFC0
07FF80
03FE00
01FC00
01F800
007000
002000
ENDCHAR
STARTCHAR 006A
ENCODING 106
SWIDTH 291 0
DWIDTH 21 0
BBX 23 64 -3 -14
BITMAP
003E00
00FF80
01FF80
01FFC0
01FFC0
01FFC0
01FF80
00FF80
007F00
003C00
001800
000000
000800
001C00
003E00
007F00
00FF80
01FFC0
03FFF0
07FFFC
0BFFF8
01FFE0
01FFC0
01FFC0
01FFC0
01FFC0
01FFC0
01FFC0
01FFC0
01FFC0
01FFC0
01FFC0
01FFC0
01FFC0
01FFC0
01FFC0
01FFC0
01FFC0
01FFC0
01FFC0
01FFC0
01FFC0
01FFC0
01FFC0
01FFC0
01FFC0
01FFC0
01FFC0
01FFC0
01FFC0
01FFC0
01FFC0
01FFC0
01FFE0
01FFE0
01FFD0
01FFD0
01FF88
01FF88
01FF04
03FE02
03F800
07E000
FF0000
ENDCHAR
STARTCHAR 006B
ENCODING 107
SWIDTH 513 0
DWIDTH 37 0
BBX 37 50 1 -1
BITMAP
0000FC0000
001FC00000
007F000000
01FF000000
83FE000000
87FE000000
4FFE000000
4FFE000000
3FFE000000
1FFE000000
1FFE000000
1FFE000000
1FFE000000
1FFE004000
0FFE01F000
0FFE03F800
0FFE07FC00
0FFE0FFE00
0FFE3FFF00
0FFE7FFF00
0FFF9FFF00
0FFE0FFE00
0FFE07FC00
0FFE07F000
0FFE03C000
0FFE01C000
0FFE07E000
0FFE0FF000
0FFE1FF800
0FFE7FF800
0FFEFFFC00
0FFFBFFC00
0FFE1FFE00
0FFE0FFE00
0FFE0FFE00
0FFE0FFF00
0FFE07FF00
0FFE07FF00
0FFE07FF00
0FFE03FF80
0FFE03FF80
1FFE03FF80
1FFE03FFC8
FFFE03FFF0
FFFFC1FFE0
3FFF01FFC0
0FFC01FF00
03F800FE00
01F0007C00
00C0007800
ENDCHAR
STARTCHAR 006C
ENCODING 108
SWIDTH 291 0
DWIDTH 21 0
BBX 21 50 1 -1
BITMAP
0001F8
000FC0
007F80
80FF00
C3FE00
47FE00
67FE00
2FFE00
3FFE00
1FFE00
1FFE00
1FFE00
1FFE00
1FFE00
0FFE00
0FFE00
0FFE00
0FFE00
0FFE00
0FFE00
0FFE00
0FFE00
0FFE00
0FFE00
0FFE00
0FFE00
0FFE00
0FFE00
0FFE00
0FFE00
0FFE00
0FFE00
0FFE00
0FFE00
0FFE00
0FFE00
0FFE00
0FFE00
0FFE00
0FFE00
0FFE00
0FFE00
1FFF18
3FFFF0
1FFFE0
07FF80
03FF00
01FE00
00F800
007000
ENDCHAR
STARTCHAR 006D
ENCODING 109
SWIDTH 750 0
DWIDTH 54 0
BBX 52 38 1 0
BITMAP
00C000C0002000
01F001F000F000
03F807F801F800
0FFC0FFC03FC00
1FFE1FFE0FFE00
3FFE3FFE1FFF80
7FFE7FFE3FFFE0
FFFECFFECFFFC0
0FFF0FFF0FFF00
0FFE0FFE0FFF00
0FFE0FFE0FFE00
0FFE0FFE0FFE00
0FFE0FFE0FFE00
0FFE0FFE0FFE00
0FFE0FFE0FFE00
0FFE0FFE0FFE00
0FFE0FFE0FFE00
0FFE0FFE0FFE00
0FFE0FFE0FFE00
0FFE0FFE0FFE00
0FFE0FFE0FFE00
0FFE0FFE0FFE00
0FFE0FFE0FFE00
0FFE0FFE0FFE00
0FFE0FFE0FFE00
0FFE0FFE0FFE00
0FFE0FFE0FFE00
0FFE0FFE0FFE00
0FFE0FFE0FFE00
0FFF0FFF0FFF10
7FFF7FFF87FFE0
3FFE3FFF07FFC0
0FFC0FFC07FF80
03F803F803FF00
01F001F003FC00
00E000E001F800
0040006000F000
00000000002000
ENDCHAR
STARTCHAR 006E
ENCODING 110
SWIDTH 527 0
DWIDTH 38 0
BBX 37 38 1 0
BITMAP
00C0002000
01F0007000
03F801F800
07FC03FC00
0FFE0FFE00
3FFE1FFF80
7FFE3FFFE0
FFFFCFFFC0
8FFF0FFF00
0FFF07FF00
07FF07FF00
07FF07FF00
07FF07FF00
07FF07FF00
07FF07FF00
07FF07FF00
07FF07FF00
07FF07FF00
07FF07FF00
07FF07FF00
07FF07FF00
07FF07FF00
07FF07FF00
07FF07FF00
07FF07FF00
07FF07FF00
07FF07FF00
07FF07FF00
0FFF07FF00
0FFF07FF08
7FFF87FFF0
3FFF07FFC0
0FFC03FF80
03F803FF00
01F001FE00
00E000F800
0060007000
0000002000
ENDCHAR
STARTCHAR 006F
ENCODING 111
SWIDTH 472 0
DWIDTH 34 0
BBX 30 38 2 0
BITMAP
00000300
00000F80
00001FC0
00007FE0
0003FFF0
00FFFFF0
1FFCFFF8
1FFC3FF8
1FFC3FF8
1FFC1FFC
1FFC1FFC
1FFC1FFC
1FFC1FFC
1FFC1FFC
1FFC1FFC
1FFC1FFC
1FFC1FFC
1FFC1FFC
1FFC1FFC
1FFC1FFC
1FFC1FFC
1FFC1FFC
1FFC1FFC
1FFC1FFC
1FFC1FFC
1FFC1FF8
1FFE1FF8
1FFF1FF8
3FFFDFF0
FFFFFFE0
3FFFFFC0
07FFFE00
01FFF000
007FC000
003F8000
000F0000
00060000
00020000
ENDCHAR
STARTCHAR 0070
ENCODING 112
SWIDTH 527 0
DWIDTH 38 0
BBX 33 59 1 -15
BITMAP
00F0000000
03C0000000
0E00000000
1C00000000
3F00000000
3FE0000000
3FF8001800
7FFC003C00
7FFF00FE00
7FFF01FE00
3FFF83FF00
3FFF8FFF00
1FFF9FFF00
0FFFE3FF80
07FFC3FF80
03FF83FF80
03FF83FF80
03FF83FF80
03FF83FF80
03FF83FF80
03FF83FF80
03FF83FF80
03FF83FF80
03FF83FF80
03FF83FF80
03FF83FF80
03FF83FF80
03FF83FF80
03FF83FF80
0FFF83FF80
3FFFC3FF80
3FFFE3FF80
7FFFF3FF80
7FFFFBFF80
7FFFFFFF00
FFFFFFFE00
C3FFFFFC00
C1FFFFF000
81FFFFC000
81FFFF0000
01FFBE0000
01FF9E0000
00FF8C0000
00FF800000
00FF000000
00FF000000
00FF000000
00FF000000
007F000000
007E000000
007E000000
007E000000
007E000000
003C000000
003C000000
003C000000
0018000000
0018000000
0018000000
ENDCHAR
STARTCHAR 0071
ENCODING 113
SWIDTH 486 0
DWIDTH 35 0
BBX 31 53 3 -15
BITMAP
00008000
0001C000
0007F000
001FF800
003FFE00
00FFFF80
03FFFFF0
1FEFFFFE
3FE7FFF8
7FE3FFF0
FFE0FFE0
FFE0FFE0
FFE0FFE0
FFE0FFE0
FFE0FFE0
FFE0FFE0
FFE0FFE0
FFE0FFE0
FFE0FFE0
FFE0FFE0
FFE0FFE0
FFE0FFE0
FFE0FFE0
FFE0FFE0
FFE0FFE0
FFE0FFE0
FFE0FFE0
FFF0FFE0
FFF0FFE0
FFF0FFE0
FFF97FE0
7FFE7FE0
7FF87FE0
3FF07FE0
3FE07FE0
1FC07FE0
07807FC0
03007FC0
00007FC0
00007FC0
00003FC0
00003FC0
00003F80
00003F80
00001F80
00001F80
00001F80
00000F00
00000F00
00000F00
00000700
00000600
00000200
ENDCHAR
STARTCHAR 0072
ENCODING 114
SWIDTH 430 0
DWIDTH 31 0
BBX 31 38 1 0
BITMAP
00600000
00F800C0
01FC01E0
03FE03E0
07FE07F0
1FFF0FF0
3FFF1FF8
7FFF3FFC
FFFF5FFC
87FF8FFE
07FF0FFC
07FF07F8
07FF07F0
07FF03E0
07FF03C0
07FF0180
07FF0100
07FF0000
07FF0000
07FF0000
07FF0000
07FF0000
07FF0000
07FF0000
07FF0000
07FF0000
07FF8020
07FF8040
0FFF8180
7FFFC300
1FFFFE00
03FFF800
01FFF000
007FE000
003FC000
001F8000
000E0000
00040000
ENDCHAR
STARTCHAR 0073
ENCODING 115
SWIDTH 486 0
DWIDTH 35 0
BBX 31 48 3 -1
BITMAP
0007F000
00380E00
00C00380
018000C0
02000060
02000070
04000030
04000038
08000038
08000038
08040038
000E0038
001F0078
003FC1F8
007FFFF8
00FFFFF8
01FFFFF0
03FFFFF0
07BFFFE0
0F1FFFC0
0F0FFFC0
1F03FF80
3F00FE00
7F8003C0
7F8007F0
7F800FF8
FFC00FFC
FFE03FFC
FFF07FFC
7FFFFFFE
7FF83FFE
7FE00FFE
3FC007FC
1F8007FC
070003FC
030003F8
020003F0
07FC03F0
07FF83E0
0FFFE3C0
1FFFFB80
1FFFFF00
3FFFFE00
7FFFFC00
7FFFF800
C0FFF000
800FE000
0001C000
ENDCHAR
STARTCHAR 0074
ENCODING 116
SWIDTH 347 0
DWIDTH 25 0
BBX 22 48 2 -1
BITMAP
000600
000600
000E00
000E00
000E00
001E00
001E00
003E00
003E00
007E00
007E00
00FE00
01FE00
01FE00
03FE00
07FFFC
0FFFFC
1FFFFC
7FFFFC
FFFFFC
0FFE00
0FFE00
0FFE00
0FFE00
0FFE00
0FFE00
0FFE00
0FFE00
0FFE00
0FFE00
0FFE00
0FFE00
0FFE00
0FFE00
0FFE00
0FFE00
1FFE00
1FFE04
1FFF18
FFFFF0
3FFFE0
0FFFC0
07FF80
01FE00
00FC00
007800
007000
002000
ENDCHAR
STARTCHAR 0075
ENCODING 117
SWIDTH 527 0
DWIDTH 38 0
BBX 36 38 1 0
BITMAP
0060000000
01F0006000
03F800F000
07FC00F800
0FFC03FE00
1FFE07FF00
7FFE1FFFE0
FFFE0FFF80
0FFE0FFF00
0FFF0FFF00
0FFF0FFF00
0FFF0FFF00
0FFF0FFF00
0FFF0FFF00
0FFF0FFF00
0FFF0FFF00
0FFF0FFF00
0FFF0FFF00
0FFF0FFF00
0FFF0FFF00
0FFF0FFF00
0FFF0FFF00
0FFF0FFF00
0FFF0FFF00
0FFF0FFF00
0FFF0FFF00
0FFF0FFF00
0FFF0FFF00
0FFF0FFF00
1FFF3FFF10
7FFFF7FFF0
3FFFC7FFE0
0FFF87FFC0
07FE07FF00
03FC03FE00
01F801FC00
00E0007800
0040001000
ENDCHAR
STARTCHAR 0076
ENCODING 118
SWIDTH 513 0
DWIDTH 37 0
BBX 31 43 2 -1
BITMAP
01F80000
0E000000
1C000000
3C000000
7E000000
FF800000
FFE000C0
FFF803E0
FFFC07F0
FFFC0FF8
FFFE3FF8
FFFE7FFC
7FFFFFFC
3FFF1FFE
1FFE0FFE
0FFE0FFE
0FFE0FFE
0FFE0FFE
0FFE0FFE
0FFE0FFE
0FFE0FFE
0FFE0FFE
0FFE0FFE
0FFE0FFE
0FFE0FFE
0FFE0FFE
0FFE0FFE
0FFE0FFE
0FFE0FFE
0FFE0FFE
0FFE0FFE
0FFE0FFE
1FFE0FFC
1FFF0FFC
7FFF8FF8
1FFFCFF0
07FFEFE0
03FFFF80
00FFFE00
007FF000
001FC000
000F0000
00060000
ENDCHAR
STARTCHAR 0077
ENCODING 119
SWIDTH 722 0
DWIDTH 52 0
BBX 48 44 1 -1
BITMAP
01F800000000
070000000000
1E0000000000
3E0000000000
7F0000000000
7FC000000000
7FF000C00060
FFFC01F000F0
FFFC03F803F8
FFFE0FFC07FC
7FFE1FFC1FFE
7FFE7FFE7FFE
7FFEDFFEC7FF
3FFF0FFF07FF
0FFE0FFE07FF
0FFE0FFE07FF
0FFE0FFE07FF
0FFE0FFE07FF
0FFE0FFE07FF
0FFE0FFE07FF
0FFE0FFE07FF
0FFE0FFE07FF
0FFE0FFE07FF
0FFE0FFE07FF
0FFE0FFE07FF
0FFE0FFE07FF
0FFE0FFE07FF
0FFE0FFE07FF
0FFE0FFE07FF
0FFE0FFE07FF
0FFE0FFE07FF
0FFE0FFE07FF
0FFE0FFE07FF
0FFE0FFF07FF
0FFF0FFFC7FE
FFFF0FFFF7F8
3FFFDFFFFFE0
0FFF03FFFF00
07FC00FFFC00
03F8007FF000
01F0001FC000
00E0000F8000
004000070000
004000020000
ENDCHAR
STARTCHAR 0078
ENCODING 120
SWIDTH 486 0
DWIDTH 35 0
BBX 36 38 0 -1
BITMAP
0038004020
007E007020
00FF00F860
01FF00FFE0
03FF81FFC0
07FFC1FFC0
0FFFC1FF80
1FFFE3FF80
21FFE2FF00
00FFE43E00
00FFF40000
007FF40000
007FF80000
003FF80000
003FFC0000
001FFC0000
001FFE0000
001FFE0000
000FFF0000
000FFF0000
0007FF0000
0007FF8000
0003FF8000
0003FFC000
0001FFC000
0003FFE000
0002FFE000
0002FFF000
0004FFF000
0FE47FF000
1FF87FF820
3FF83FFFF0
3FF83FFF80
7FF01FFE00
7FF01FF800
7FE00FC000
C1E00F0000
8020040000
ENDCHAR
STARTCHAR 0079
ENCODING 121
SWIDTH 513 0
DWIDTH 37 0
BBX 32 59 2 -16
BITMAP
03C00000
0E000000
38000000
78000000
7E000000
FF800000
FFE00020
FFF800F0
FFFC01F8
FFFE03FC
FFFE0FFC
FFFE1FFE
7FFF3FFE
3FFFFFFE
1FFF8FFE
07FF07FF
07FF07FF
07FF07FF
07FF07FF
07FF07FF
07FF07FF
07FF07FF
07FF07FF
07FF07FF
07FF07FF
07FF07FF
07FF07FF
07FF07FF
07FF07FF
07FF07FF
07FF07FF
07FF07FF
07FF07FF
07FF07FF
07FF17FF
0FFF27FE
7FFFC7FE
1FFF07FE
0FFE07FE
03FC07FE
01F807FE
00F007FC
00700FFC
00200FFC
00000FF8
00000FF8
00000FF0
00000FF0
00000FE0
00001FC0
00001F80
00003F00
00003E00
00007C00
0000F000
0001C000
00070000
000C0000
00180000
ENDCHAR
STARTCHAR 007A
ENCODING 122
SWIDTH 388 0
DWIDTH 28 0
BBX 26 53 0 -15
BITMAP
00010000
00078000
000FC000
001FE000
007FF000
00FFF800
01FFF800
03FFFC00
0EFFFC00
103FFC00
001FFC00
001FFC00
000FF800
000FF800
000FF000
000FC000
000F8080
001E0380
003C1C00
007FF000
07DFF000
1F07F800
1E1BFC00
1C63FE00
00C3FE00
0381FF00
0701FF00
0E01FF80
1E01FF80
1C01FF80
3C01FFC0
3801FFC0
7801FFC0
7801FFC0
7001FFC0
F001FFC0
F001FFC0
F001FFC0
F001FFC0
F001FFC0
F001FF80
F001FF80
F001FF80
F001FF00
7001FF00
7003FE00
7803FE00
3803FC00
3803F800
1C07F000
0C07E000
070F8000
01FE0000
ENDCHAR
STARTCHAR 007B
ENCODING 123
SWIDTH 333 0
DWIDTH 24 0
BBX 19 65 2 -15
BITMAP
000FE0
007FE0
01FF80
01FF00
03FE00
03FE00
07FE00
07FC00
07FC00
07FC00
07FC00
07FC00
07FC00
07FC00
07FC00
07FC00
07FC00
07FC00
07FC00
07FC00
07FC00
07FC00
07FC00
07FC00
07FC00
07FC00
07FC00
07FC00
0FFC00
0FF800
1FF000
3FE000
FF8000
3FE000
1FF000
0FF800
07F800
07FC00
07FC00
07FC00
07FC00
07FC00
07FC00
07FC00
07FC00
07FC00
07FC00
07FC00
07FC00
07FC00
07FC00
07FC00
07FC00
07FC00
07FC00
07FC00
07FC00
07FC00
07FC00
03FE00
03FE00
01FF00
01FF80
007FE0
000FE0
ENDCHAR
STARTCHAR 007C
ENCODING 124
SWIDTH 222 0
DWIDTH 16 0
BBX 8 51 4 -1
BITMAP
FF
FF
FF
FF
FF
FF
FF
FF
FF
FF
FF
FF
FF
FF
FF
FF
FF
FF
FF
FF
FF
FF
FF
FF
FF
FF
FF
FF
FF
FF
FF
FF
FF
FF
FF
FF
FF
FF
FF
FF
FF
FF
FF
FF
FF
FF
FF
FF
FF
FF
FF
ENDCHAR
STARTCHAR 007D
ENCODING 125
SWIDTH 333 0
DWIDTH 24 0
BBX 19 65 3 -15
BITMAP
FC0000
FFC000
7FE000
1FF000
1FF800
0FF800
0FF800
0FF800
0FF800
0FF800
0FFC00
07FC00
07FC00
07FC00
07FC00
07FC00
07FC00
07FC00
07FC00
07FC00
07FC00
07FC00
07FC00
07FC00
07FC00
07FC00
07FC00
07FC00
07FC00
07FC00
03FE00
01FF00
007FE0
01FF00
03FE00
07FE00
07FC00
07FC00
07FC00
07FC00
07FC00
07FC00
07FC00
07FC00
07FC00
07FC00
07FC00
07FC00
07FC00
07FC00
07FC00
07FC00
07FC00
07FC00
0FFC00
0FFC00
0FF800
0FF800
0FF800
0FF800
1FF800
3FF000
7FE000
FFC000
FE0000
ENDCHAR
STARTCHAR 007E
ENCODING 126
SWIDTH 444 0
DWIDTH 32 0
BBX 28 11 4 26
BITMAP
03000010
07800030
07E00070
0FF800E0
1FFF03C0
3FFFFF80
7C0FFF80
7001FF00
C0007E00
00003C00
00000C00
ENDCHAR
STARTCHAR 00A0
ENCODING 160
SWIDTH 472 0
DWIDTH 34 0
BBX 0 0 0 0
BITMAP
ENDCHAR
STARTCHAR 00A1
ENCODING 161
SWIDTH 361 0
DWIDTH 26 0
BBX 15 51 6 -14
BITMAP
0100
0300
0780
07C0
0FE0
3FF0
FFFE
FFFE
3FF8
0FE0
07C0
0780
0380
0100
0000
0000
0000
0100
0300
0300
0300
0300
0780
0780
0780
07C0
0FC0
0FC0
0FC0
0FE0
0FE0
1FE0
1FF0
1FF0
1FF0
1FF8
3FF8
3FF8
3FF8
3FF8
3FFC
3FFC
3FFC
3FFC
3FFC
3FFC
3FFC
3FF8
1FF8
0FF0
07E0
ENDCHAR
STARTCHAR 00A2
ENCODING 162
SWIDTH 555 0
DWIDTH 40 0
BBX 39 50 3 -6
BITMAP
0000200000
0000600000
0000600000
0000600000
0000600000
0000600000
0000600200
001FF00600
007F6C1F00
01FE663F80
03FC62FFC2
07FC63FFFE
0FF8667FFC
1FF86C1FF8
1FF87E07E0
3FF07F0000
3FF07F0000
7FF0FF8000
7FF0FFC000
7FF1FFE000
7FF1FFE000
7FF1FFF000
FFE0FFF800
FFE0FFF800
FFE07FFC00
FFE07FFC00
FFE07FFE00
7FE07FFE00
7FE16FFE00
7FE167FE00
7FF167FE00
7FF1E3FE02
3FF0E1FE04
3FF0E1FE04
1FF061FC04
1FF861F808
0FF863F008
07F87FC010
03FC600020
01FE600060
00FE600080
007FE00300
001FE01C00
0007FFF000
00007C0000
0000600000
0000600000
0000600000
0000600000
0000400000
ENDCHAR
STARTCHAR 00A3
ENCODING 163
SWIDTH 597 0
DWIDTH 43 0
BBX 40 51 2 -1
BITMAP
00007FF000
0003C03F00
001F0003C0
003C0001E0
00F80000F8
01F000007C
03F00000FC
07F00003FE
07F00007FE
0FF0000FFF
0FF8001FFF
1FF8003FFF
1FFC003FFF
1FFE003FFF
1FFE003FFF
1FFF003FFF
1FFF803FFE
1FFFC01FFE
1FFFC01FFC
1FFFE00FF8
0FFFE003F0
0FFFF00000
07FFF00000
07FFF80000
03FFF80000
01FFF80000
00FFF80000
FFFFFFFFF8
001FF00000
000FE00000
000FC00000
000F000000
000C000000
0010000000
007C000000
00FF800000
03FFE00000
07FFF80001
1FFFFE0001
1FFFFF0003
3FFFFFC003
31FFFFF006
207FFFFC1E
603FFFFFFC
601FFFFFFC
4007FFFFF8
0003FFFFF0
0000FFFFE0
00003FFFC0
00001FFF00
000003FC00
ENDCHAR
STARTCHAR 00A4
ENCODING 164
SWIDTH 638 0
DWIDTH 46 0
BBX 32 32 7 7
BITMAP
101FF810
38FFFE38
7FFFFFFC
FFFFFFFE
7FFFFFFE
3FFFFFFC
3FFFFFF8
3FFFFFF8
7FF01FFC
7FE007FC
FFC003FE
FF8003FE
FF0001FE
FF0001FE
FF0001FF
FF0000FF
FF0000FF
FF0001FF
FF0001FF
FF0001FE
FF8003FE
7FC003FE
7FE007FE
7FF01FFC
3FFFFFF8
3FFFFFF8
7FFFFFFC
FFFFFFFE
FDFFFF7F
78FFFE3E
387FF81C
101FE018
ENDCHAR
STARTCHAR 00A5
ENCODING 165
SWIDTH 638 0
DWIDTH 46 0
BBX 46 50 -1 0
BITMAP
FFFFFE00FFFC
FFFFFE00FFFC
1FFFE0000FF8
07FF800007E0
03FF800007C0
03FF80000780
01FFC0000700
00FFC0000600
00FFE0000E00
007FE0000C00
007FF0001800
003FF0001800
003FF8003000
001FF8007000
001FFC006000
000FFC00E000
0007FE00C000
0007FE018000
0003FF018000
0003FF030000
0001FF870000
0001FF860000
0000FFCE0000
0000FFCC0000
00007FF80000
00007FF80000
007FFFFFFE00
007FFFFFFE00
00001FF80000
00001FF80000
00001FF80000
00001FF80000
00001FF80000
007FFFFFFE00
007FFFFFFE00
007FFFFFFE00
00001FF80000
00001FF80000
00001FF80000
00001FF80000
00001FF80000
00001FF80000
00001FF80000
00001FF80000
00001FF80000
00001FF80000
00001FF80000
00003FFC0000
0003FFFFC000
0003FFFFC000
ENDCHAR
STARTCHAR 00A6
ENCODING 166
SWIDTH 222 0
DWIDTH 16 0
BBX 8 51 4 -1
BITMAP
FF
FF
FF
FF
FF
FF
FF
FF
FF
FF
FF
FF
FF
FF
FF
FF
FF
FF
FF
FF
00
00
00
00
00
00
00
00
00
00
00
FF
FF
FF
FF
FF
FF
FF
FF
FF
FF
FF
FF
FF
FF
FF
FF
FF
FF
FF
FF
ENDCHAR
STARTCHAR 00A7
ENCODING 167
SWIDTH 597 0
DWIDTH 43 0
BBX 34 66 4 -16
BITMAP
0003FE0000
001E03C000
0070007000
00E0007800
01C000FC00
03C001FE00
07C003FE00
078007FE00
0F800FFE00
0FC00FFE00
0FE007FE00
1FF007FC00
1FFC01F800
1FFF000000
1FFFE00000
0FFFFC0000
0FFFFF0000
0FFFFFE000
07FFFFF000
07FFFFFC00
03FFFFFE00
00FFFFFF00
03FFFFFF80
063FFFFF80
0C0FFFFFC0
1C01FFFFC0
1C007FFFC0
38000FFFC0
780003FFC0
7C00007FC0
7E00001FC0
7F000007C0
FF800003C0
FFE00003C0
FFF80003C0
FFFE000380
7FFF800380
7FFFE00300
7FFFF80200
3FFFFF0400
3FFFFFC800
1FFFFFF000
0FFFFFF800
07FFFFFC00
01FFFFFE00
007FFFFE00
001FFFFF00
0003FFFF00
0000FFFF00
00001FFF00
000007FF00
03E001FF00
07F800FF00
0FFC003F00
0FFC003F00
1FFC001F00
1FFC001F00
1FFC001E00
0FFC001E00
0FF8001E00
07F0001C00
07E0003800
03E0007000
00E000E000
003C078000
0007FC0000
ENDCHAR
STARTCHAR 00A8
ENCODING 168
SWIDTH 388 0
DWIDTH 28 0
BBX 26 10 1 46
BITMAP
04000800
0C001800
1E003C00
3F007E00
FFE1FFC0
FFC1FF80
3F007E00
1E003C00
0E001C00
04000800
ENDCHAR
STARTCHAR 00A9
ENCODING 169
SWIDTH 791 0
DWIDTH 57 0
BBX 51 51 2 -1
BITMAP
000007FE000000
00007FFFE00000
0001FFFFF80000
0007FFFFFE0000
001FFFFFFF8000
003FF801FFC000
007FC0003FE000
00FF00000FF000
01FC000007F800
03F8000001FC00
07F0000000FE00
07E00000007E00
0FC00000003F00
1F801F81001F80
1F807C47801F80
3F01F82FC00FC0
3E03F83FF80FC0
3E03F047F007C0
7E07F0E3E007E0
7C07F1E00003E0
7C0FF3F00003E0
7C0FF3F80003E0
7C0FF7F80003E0
7C0FF3FC0003E0
F81FE3FE0003E0
F81FE1FE0003E0
F81FE0FF0003E0
7C0FE0FF0003E0
7C0FE07F0003E0
7C0FF43F0003E0
7C0FF21F0003E0
7C07F21F1003E0
7E07F11E1007E0
3E03F0F82007C0
3E01F800200FC0
3F00F800400F80
1F807C00801F80
1F803F03001F80
0FC007FC003F00
0FE00000007E00
07F0000000FE00
03F8000001FC00
01FC000007F800
00FF00000FF000
007FC0003FE000
003FF801FFC000
001FFFFFFF8000
0007FFFFFE0000
0001FFFFF80000
00007FFFE00000
000007FE000000
ENDCHAR
STARTCHAR 00AA
ENCODING 170
SWIDTH 375 0
DWIDTH 27 0
BBX 22 27 4 24
BITMAP
000800
003C00
00FF00
03FF80
0EFFF0
3E7FFC
7E1FE0
FE0FE0
FE0FE0
FE0FE0
FE0FE0
FE0FE0
FE0FE0
FE0FE0
FE0FE0
FE0FE0
FE0FE0
FE0FE0
FE0FE0
FE0FE0
FE0FE0
FE3FF4
FFCFF8
FF07F0
7E07E0
3C03C0
180180
ENDCHAR
STARTCHAR 00AB
ENCODING 171
SWIDTH 402 0
DWIDTH 29 0
BBX 23 27 3 5
BITMAP
001804
003808
007018
00F038
01E070
03E0F0
07C1E0
07C3E0
0F87C0
1F8FC0
3F1FC0
7F3F80
FE3F80
FE3F80
7F3F80
3F1FC0
3F8FC0
1F87E0
0F83E0
07C1F0
03C0F0
01E0F8
00E078
00703C
00301C
00180C
000806
ENDCHAR
STARTCHAR 00AC
ENCODING 172
SWIDTH 958 0
DWIDTH 69 0
BBX 62 22 3 -4
BITMAP
1F00006020600000
638000CC20E00000
40C0008C20C00000
40C0008C21800000
4000008C23000000
4003E3FF2303E204
6006308C26023304
3004108C2C06110C
1C0C188C2E04110C
070C188C3E041988
018C188C3307F998
00CC188C2307F898
004C188C21840090
C04C188C218400D0
C044108C20C610F0
40C4108C20461070
7186308420623060
3F03E0872023E060
0000000000000060
0000000000000060
00000000000000C0
00000000000003C0
ENDCHAR
STARTCHAR 00AD
ENCODING 173
SWIDTH 430 0
DWIDTH 31 0
BBX 19 6 6 16
BITMAP
FFFFE0
FFFFE0
FFFFE0
FFFFE0
FFFFE0
FFFFE0
ENDCHAR
STARTCHAR 00AE
ENCODING 174
SWIDTH 791 0
DWIDTH 57 0
BBX 51 51 2 -1
BITMAP
000007FE000000
00007FFFE00000
0001FFFFF80000
0007FFFFFE0000
001FFFFFFF8000
003FF801FFC000
007FC0003FE000
00FF00000FF000
01FC000007F800
03F8000001FC00
07F0000000FE00
07E00000007E00
0FC00000003F00
1F807E07C01F80
1F81FF0FF01F80
3F021F93F80FC0
3E040FD3F80FC0
3E0C0FD3F807C0
7E0E0FF3F807E0
7C0F0FE1F803E0
7C0F87E1F803E0
7C0FC7E1F803E0
7C0FC7F0FC03E0
7C07C7F03E03E0
F807C7F0E003E0
F803C7FFF003E0
F801C7F3F003E0
7C0087F3F003E0
7C0107F3F003E0
7C0607F3F003E0
7C0007F3F003E0
7C0387F3F003E0
7E07C7E3F007E0
3E0FC7E3F007C0
3E0FC7C3F00FC0
3F0FC7C1FE0F80
1F870781FC1F80
1F820E01F01F80
0FC11800603F00
0FE0E000007E00
07F0000000FE00
03F8000001FC00
01FC000007F800
00FF00000FF000
007FC0003FE000
003FF801FFC000
001FFFFFFF8000
0007FFFFFE0000
0001FFFFF80000
00007FFFE00000
000007FE000000
ENDCHAR
STARTCHAR 00AF
ENCODING 175
SWIDTH 277 0
DWIDTH 20 0
BBX 0 0 0 0
BITMAP
ENDCHAR
STARTCHAR 00B0
ENCODING 176
SWIDTH 277 0
DWIDTH 20 0
BBX 16 16 2 35
BITMAP
07C0
1FF0
3FFC
7C3C
701E
E00E
E00F
E007
E007
E007
E00E
F01E
7C3C
3FF8
1FF0
07C0
ENDCHAR
STARTCHAR 00B1
ENCODING 177
SWIDTH 583 0
DWIDTH 42 0
BBX 36 41 3 0
BITMAP
0003FC0000
0003FC0000
0003FC0000
0003FC0000
0003FC0000
0003FC0000
0003FC0000
0003FC0000
0003FC0000
0003FC0000
0003FC0000
0003FC0000
FFFFFFFFF0
FFFFFFFFF0
FFFFFFFFF0
FFFFFFFFF0
FFFFFFFFF0
FFFFFFFFF0
FFFFFFFFF0
FFFFFFFFF0
0003FC0000
0003FC0000
0003FC0000
0003FC0000
0003FC0000
0003FC0000
0003FC0000
0003FC0000
0003FC0000
0003FC0000
0003FC0000
0003FC0000
0000000000
0000000000
FFFFFFFFF0
FFFFFFFFF0
FFFFFFFFF0
FFFFFFFFF0
FFFFFFFFF0
FFFFFFFFF0
FFFFFFFFF0
ENDCHAR
STARTCHAR 00B2
ENCODING 178
SWIDTH 333 0
DWIDTH 24 0
BBX 21 28 1 21
BITMAP
03FC00
1C3F00
201FC0
600FE0
E00FF0
E007F0
FC07F8
FE07F8
FF0FF8
FF0FF0
FF0FF0
7E1FF0
3C3FE0
007FC0
00FF00
01FC00
03C000
060008
180008
200018
3FF030
4FFFF0
47FFF0
43FFF0
61FFE0
70FFE0
603FC0
001F00
ENDCHAR
STARTCHAR 00B3
ENCODING 179
SWIDTH 305 0
DWIDTH 22 0
BBX 21 28 0 21
BITMAP
03FC00
0C3F80
381FE0
3E0FE0
7F8FF0
7F8FF0
7F8FF0
3F8FF0
1F0FF0
000FF0
000FE0
000FC0
001F80
07FE00
001FC0
000FE0
0007F0
0007F8
3E07F8
7F07F8
7F07F8
FF07F8
FF07F8
7E07F8
7C07F0
300FE0
181F80
07FC00
ENDCHAR
STARTCHAR 00B4
ENCODING 180
SWIDTH 222 0
DWIDTH 16 0
BBX 12 11 2 42
BITMAP
0420
0FF0
0FE0
0FE0
0FE0
1FE0
1FE0
3C00
3000
4000
8000
ENDCHAR
STARTCHAR 00B5
ENCODING 181
SWIDTH 527 0
DWIDTH 38 0
BBX 36 53 1 -15
BITMAP
0060000000
01F0006000
03F800F000
07FC00F800
0FFC03FE00
1FFE07FF00
7FFE1FFFE0
FFFE0FFF80
0FFE0FFF00
0FFF0FFF00
0FFF0FFF00
0FFF0FFF00
0FFF0FFF00
0FFF0FFF00
0FFF0FFF00
0FFF0FFF00
0FFF0FFF00
0FFF0FFF00
0FFF0FFF00
0FFF0FFF00
0FFF0FFF00
0FFF0FFF00
0FFF0FFF00
0FFF0FFF00
0FFF0FFF00
0FFF0FFF00
0FFF0FFF00
0FFF0FFF00
0FFF0FFF00
0FFF3FFF10
07FFF7FFF0
07FFC7FFE0
07FF87FFC0
07FE07FF00
07FC03FE00
07FC01FC00
07FC00F800
07FC003000
07FC000000
07FC000000
07F8000000
07F8000000
07F8000000
03F8000000
03F8000000
03F0000000
03F0000000
01F0000000
01E0000000
01E0000000
00E0000000
00C0000000
00C0000000
ENDCHAR
STARTCHAR 00B6
ENCODING 182
SWIDTH 611 0
DWIDTH 44 0
BBX 36 66 3 -16
BITMAP
00FFFFFFF0
07FFE0FF80
0FFFE0FF00
1FFFE0FF00
3FFFE0FF00
3FFFE0FF00
7FFFE0FF00
7FFFE0FF00
7FFFE0FF00
FFFFE0FF00
FFFFE0FF00
FFFFE0FF00
FFFFE0FF00
FFFFE0FF00
FFFFE0FF00
FFFFE0FF00
FFFFE0FF00
FFFFE0FF00
FFFFE0FF00
FFFFE0FF00
7FFFE0FF00
7FFFE0FF00
7FFFE0FF00
3FFFE0FF00
1FFFE0FF00
1FFFE0FF00
0FFFE0FF00
03FFE0FF00
00FFE0FF00
001FE0FF00
001FE0FF00
001FE0FF00
001FE0FF00
001FE0FF00
001FE0FF00
001FE0FF00
001FE0FF00
001FE0FF00
001FE0FF00
001FE0FF00
001FE0FF00
001FE0FF00
001FE0FF00
001FE0FF00
001FE0FF00
001FE0FF00
001FE0FF00
001FE0FF00
001FE0FF00
001FE0FF00
001FE0FF00
001FE0FF00
001FE0FF00
001FE0FF00
001FE0FF00
001FE0FF00
001FE0FF00
001FE0FF00
001FE0FF00
001FE0FF00
001FE0FF00
001FE0FF00
001FE0FF00
003FE0FF00
007FE0FF80
03FFE0FFF0
ENDCHAR
STARTCHAR 00B7
ENCODING 183
SWIDTH 208 0
DWIDTH 15 0
BBX 7 7 4 14
BITMAP
38
7C
FE
FE
FE
7C
38
ENDCHAR
STARTCHAR 00B8
ENCODING 184
SWIDTH 277 0
DWIDTH 20 0
BBX 0 0 0 0
BITMAP
ENDCHAR
STARTCHAR 00B9
ENCODING 185
SWIDTH 250 0
DWIDTH 18 0
BBX 17 26 2 22
BITMAP
007000
00F000
01F000
03F000
0FF000
FFF000
0FF000
07F000
07F000
07F000
07F000
07F000
07F000
07F000
07F000
07F000
07F000
07F000
07F000
07F000
07F000
07F000
07F000
07F000
0FF000
7FFF80
ENDCHAR
STARTCHAR 00BA
ENCODING 186
SWIDTH 361 0
DWIDTH 26 0
BBX 21 27 3 24
BITMAP
000180
0007C0
001FC0
01FFE0
3F9FF0
3F8FF0
3F87F0
3F87F0
3F83F0
3F83F0
3F83F0
3F83F8
3F83F8
3F83F0
3F83F0
3F83F0
3F83F0
3F83F0
3F83F0
7FC3E0
FFE3E0
FFFBC0
1FFF00
07FC00
03F000
00E000
004000
ENDCHAR
STARTCHAR 00BB
ENCODING 187
SWIDTH 402 0
DWIDTH 29 0
BBX 22 27 3 6
BITMAP
002000
403000
203800
301C00
381E00
1C0F00
1E0F80
0F07C0
0F87E0
0FC3F0
07E3F8
07F3F8
03F9FC
07F9FC
07F1FC
0FE3F8
0FE3F0
0FC7E0
1F87C0
1F0F80
3E0F00
3C0E00
781C00
701C00
603800
C03000
802000
ENDCHAR
STARTCHAR 00BC
ENCODING 188
SWIDTH 708 0
DWIDTH 51 0
BBX 46 51 2 -2
BITMAP
000000000400
000000000600
007000000E00
00F000001C00
01F000001C00
03F000003800
0FF000003800
FFF000007000
0FF00000E000
07F00000E000
07F00001C000
07F00001C000
07F000038000
07F000070000
07F000070000
07F0000E0000
07F0001E0000
07F0001C0000
07F000380000
07F000380000
07F000700000
07F000F00000
07F000E00000
07F001C00000
07F001C007C0
07F003800FC0
0FF007801FC0
7FFF87003FC0
00000E003FC0
00001E005FC0
00001C009FC0
00003C019FC0
000038011FC0
000070021FC0
0000F0041FC0
0000E00C1FC0
0001E0081FC0
0001C0101FC0
000380201FC0
000780601FC0
000700401FC0
000F00801FC0
001E01001FC0
001C01001FC0
003C01FFFFFC
003800001FC0
007000001FC0
00F000001FC0
00E000003FC0
01E00001FFFC
01C000000000
ENDCHAR
STARTCHAR 00BD
ENCODING 189
SWIDTH 708 0
DWIDTH 51 0
BBX 48 52 2 -1
BITMAP
000000001000
000000001800
007000003C00
00F000007800
01F000007800
03F00000F000
0FF00000F000
FFF00001E000
0FF00003C000
07F00003C000
07F000078000
07F000070000
07F0000F0000
07F0001E0000
07F0001E0000
07F0003C0000
07F000380000
07F000780000
07F000F00000
07F000F00000
07F001E00000
07F003C00000
07F003C00000
07F007800000
07F00700FF80
07F00F0307E0
0FF01E0C03F8
7FFF9E1C01FC
00003C1F81FE
0000381FC1FE
0000781FC1FE
0000F01FE1FF
0000E01FC1FE
0001E01FC1FE
0001C00783FE
0003C00003FE
0007800007FC
000700000FF8
000F00003FE0
000E00007F01
001E0000F802
003C0001C002
003800020002
00780005FE06
00F0000BFFFE
00E00008FFFE
01E000087FFC
01C000083FFC
03C0000C1FF8
0780000C0FF8
0700000003E0
010000000000
ENDCHAR
STARTCHAR 00BE
ENCODING 190
SWIDTH 722 0
DWIDTH 52 0
BBX 49 51 2 0
BITMAP
00000000030000
03FE0000038000
1C1F8000070000
380FE0000F0000
7C0FF0000E0000
7F07F0001E0000
7F87F8003C0000
7F87F800380000
7F07F800780000
1E07F800700000
0007F000F00000
0007F001E00000
000FE001C00000
000F8003C00000
07FC0003800000
001F8007000000
000FE00F000000
000FF00E000000
0007F01E000000
3C07F83C000000
FE07F838000000
FF07F878000000
FF07F870000000
FE07F0F0000000
FC0FF1E000F800
700FE1C001F800
181F83C003F800
07FC038007F800
0000070007F800
00000F000BF800
00000E0013F800
00001E0033F800
00003C0023F800
0000380043F800
0000780083F800
0000700083F800
0000F00103F800
0001E00203F800
0001C00603F800
0003C00403F800
0003800803F800
0007801003F800
000F003003F800
000E003FFFFF80
001E000003F800
001C000003F800
0038000003F800
0078000003F800
0070000003F800
00F000003FFF80
00200000000000
ENDCHAR
STARTCHAR 00BF
ENCODING 191
SWIDTH 430 0
DWIDTH 31 0
BBX 28 51 2 -14
BITMAP
00040000
000E0000
001E0000
001F0000
003F8000
00FFE000
03FFF800
03FFF800
00FFE000
007F8000
003F0000
001E0000
000E0000
00040000
00000000
00000000
00000000
003E0000
00C18000
0100C000
03004000
02006000
02006000
0200E000
0201E000
0301E000
0007C000
000FC000
003F8000
00FF8000
01FF0000
07FF0000
0FFE0000
1FFE0000
3FFC0F80
7FFC3FC0
7FF83FE0
FFF87FE0
FFF07FF0
FFF07FF0
FFE07FF0
FFE07FF0
FFE03FF0
7FE00FF0
7FE000E0
3FF000E0
1FF001C0
0FFC0380
07FE0700
01FFFC00
003FE000
ENDCHAR
STARTCHAR 00C0
ENCODING 192
SWIDTH 750 0
DWIDTH 54 0
BBX 0 0 0 0
BITMAP
ENDCHAR
STARTCHAR 00C1
ENCODING 193
SWIDTH 750 0
DWIDTH 54 0
BBX 0 0 0 0
BITMAP
ENDCHAR
STARTCHAR 00C2
ENCODING 194
SWIDTH 750 0
DWIDTH 54 0
BBX 0 0 0 0
BITMAP
ENDCHAR
STARTCHAR 00C3
ENCODING 195
SWIDTH 750 0
DWIDTH 54 0
BBX 0 0 0 0
BITMAP
ENDCHAR
STARTCHAR 00C4
ENCODING 196
SWIDTH 750 0
DWIDTH 54 0
BBX 0 0 0 0
BITMAP
ENDCHAR
STARTCHAR 00C5
ENCODING 197
SWIDTH 750 0
DWIDTH 54 0
BBX 0 0 0 0
BITMAP
ENDCHAR
STARTCHAR 00C6
ENCODING 198
SWIDTH 986 0
DWIDTH 71 0
BBX 0 0 0 0
BITMAP
ENDCHAR
STARTCHAR 00C7
ENCODING 199
SWIDTH 722 0
DWIDTH 52 0
BBX 0 0 0 0
BITMAP
ENDCHAR
STARTCHAR 00C8
ENCODING 200
SWIDTH 777 0
DWIDTH 56 0
BBX 0 0 0 0
BITMAP
ENDCHAR
STARTCHAR 00C9
ENCODING 201
SWIDTH 777 0
DWIDTH 56 0
BBX 0 0 0 0
BITMAP
ENDCHAR
STARTCHAR 00CA
ENCODING 202
SWIDTH 777 0
DWIDTH 56 0
BBX 0 0 0 0
BITMAP
ENDCHAR
STARTCHAR 00CB
ENCODING 203
SWIDTH 777 0
DWIDTH 56 0
BBX 0 0 0 0
BITMAP
ENDCHAR
STARTCHAR 00CC
ENCODING 204
SWIDTH 652 0
DWIDTH 47 0
BBX 0 0 0 0
BITMAP
ENDCHAR
STARTCHAR 00CD
ENCODING 205
SWIDTH 652 0
DWIDTH 47 0
BBX 0 0 0 0
BITMAP
ENDCHAR
STARTCHAR 00CE
ENCODING 206
SWIDTH 652 0
DWIDTH 47 0
BBX 0 0 0 0
BITMAP
ENDCHAR
STARTCHAR 00CF
ENCODING 207
SWIDTH 652 0
DWIDTH 47 0
BBX 0 0 0 0
BITMAP
ENDCHAR
STARTCHAR 00D0
ENCODING 208
SWIDTH 777 0
DWIDTH 56 0
BBX 0 0 0 0
BITMAP
ENDCHAR
STARTCHAR 00D1
ENCODING 209
SWIDTH 763 0
DWIDTH 55 0
BBX 0 0 0 0
BITMAP
ENDCHAR
STARTCHAR 00D2
ENCODING 210
SWIDTH 805 0
DWIDTH 58 0
BBX 0 0 0 0
BITMAP
ENDCHAR
STARTCHAR 00D3
ENCODING 211
SWIDTH 805 0
DWIDTH 58 0
BBX 0 0 0 0
BITMAP
ENDCHAR
STARTCHAR 00D4
ENCODING 212
SWIDTH 805 0
DWIDTH 58 0
BBX 0 0 0 0
BITMAP
ENDCHAR
STARTCHAR 00D5
ENCODING 213
SWIDTH 805 0
DWIDTH 58 0
BBX 0 0 0 0
BITMAP
ENDCHAR
STARTCHAR 00D6
ENCODING 214
SWIDTH 805 0
DWIDTH 58 0
BBX 0 0 0 0
BITMAP
ENDCHAR
STARTCHAR 00D7
ENCODING 215
SWIDTH 583 0
DWIDTH 42 0
BBX 32 33 5 1
BITMAP
0C000030
1E000078
3F0000FC
7F8001FE
FFC003FF
FFE007FF
7FF00FFE
3FF81FFC
1FFC3FF8
0FFE7FF0
07FFFFE0
03FFFFC0
01FFFF80
00FFFF80
007FFF00
003FFE00
003FFC00
007FFE00
00FFFF00
01FFFF80
03FFFFC0
07FFFFE0
0FFFFFF0
1FFE7FF8
3FFC3FFC
7FF81FFE
FFF00FFF
FFE007FF
7FC003FE
3F8001FE
3F0000FC
1E000078
0C000030
ENDCHAR
STARTCHAR 00D8
ENCODING 216
SWIDTH 805 0
DWIDTH 58 0
BBX 0 0 0 0
BITMAP
ENDCHAR
STARTCHAR 00D9
ENCODING 217
SWIDTH 652 0
DWIDTH 47 0
BBX 0 0 0 0
BITMAP
ENDCHAR
STARTCHAR 00DA
ENCODING 218
SWIDTH 652 0
DWIDTH 47 0
BBX 0 0 0 0
BITMAP
ENDCHAR
STARTCHAR 00DB
ENCODING 219
SWIDTH 652 0
DWIDTH 47 0
BBX 0 0 0 0
BITMAP
ENDCHAR
STARTCHAR 00DC
ENCODING 220
SWIDTH 652 0
DWIDTH 47 0
BBX 0 0 0 0
BITMAP
ENDCHAR
STARTCHAR 00DD
ENCODING 221
SWIDTH 763 0
DWIDTH 55 0
BBX 0 0 0 0
BITMAP
ENDCHAR
STARTCHAR 00DE
ENCODING 222
SWIDTH 805 0
DWIDTH 58 0
BBX 0 0 0 0
BITMAP
ENDCHAR
STARTCHAR 00DF
ENCODING 223
SWIDTH 527 0
DWIDTH 38 0
BBX 34 66 1 -16
BITMAP
00F8000000
03FE0C0000
07FF0C0000
07FFCC0000
0FFFFC0000
0FFFF80000
0FFFF80000
09FFF80000
187FF00000
181FE00000
1807C00000
1C00000000
1E00000000
0F80003000
0FC0007000
0FF001F800
1FF803FC00
1FFC07FE00
1FFE1FFF00
1FFE3FFF00
3FFFFFFF00
FFFFFFFF80
0FFF87FF80
0FFF07FF80
0FFF03FF80
0FFF03FF80
0FFF03FF80
0FFF03FF80
0FFF03FF00
0FFF03FF00
0FFF03FE00
0FFE03FC00
0FFE07F800
0FFE07E000
0FFE0F8000
0FFE1FE000
0FFE3FFC00
07FEFFFE00
07FFFFFF00
07FE0FFF80
07FC07FF80
07FC07FF80
07FC07FFC0
07FC03FFC0
03FC03FFC0
03FC03FFC0
03FC03FFC0
03FC03FFC0
03F803FFC0
03F803FFC0
01F803FF80
01F803FF80
01F803FF80
01F803FF00
01F803FF00
01F807FE00
00FC07FC00
00F207FC00
00F10FF000
00F0FFE000
00F03F0000
0070000000
0060000000
0060000000
0060000000
0060000000
ENDCHAR
STARTCHAR 00E0
ENCODING 224
SWIDTH 486 0
DWIDTH 35 0
BBX 0 0 0 0
BITMAP
ENDCHAR
STARTCHAR 00E1
ENCODING 225
SWIDTH 486 0
DWIDTH 35 0
BBX 0 0 0 0
BITMAP
ENDCHAR
STARTCHAR 00E2
ENCODING 226
SWIDTH 486 0
DWIDTH 35 0
BBX 0 0 0 0
BITMAP
ENDCHAR
STARTCHAR 00E3
ENCODING 227
SWIDTH 486 0
DWIDTH 35 0
BBX 0 0 0 0
BITMAP
ENDCHAR
STARTCHAR 00E4
ENCODING 228
SWIDTH 486 0
DWIDTH 35 0
BBX 0 0 0 0
BITMAP
ENDCHAR
STARTCHAR 00E5
ENCODING 229
SWIDTH 486 0
DWIDTH 35 0
BBX 0 0 0 0
BITMAP
ENDCHAR
STARTCHAR 00E6
ENCODING 230
SWIDTH 638 0
DWIDTH 46 0
BBX 0 0 0 0
BITMAP
ENDCHAR
STARTCHAR 00E7
ENCODING 231
SWIDTH 402 0
DWIDTH 29 0
BBX 0 0 0 0
BITMAP
ENDCHAR
STARTCHAR 00E8
ENCODING 232
SWIDTH 416 0
DWIDTH 30 0
BBX 0 0 0 0
BITMAP
ENDCHAR
STARTCHAR 00E9
ENCODING 233
SWIDTH 416 0
DWIDTH 30 0
BBX 0 0 0 0
BITMAP
ENDCHAR
STARTCHAR 00EA
ENCODING 234
SWIDTH 416 0
DWIDTH 30 0
BBX 0 0 0 0
BITMAP
ENDCHAR
STARTCHAR 00EB
ENCODING 235
SWIDTH 416 0
DWIDTH 30 0
BBX 0 0 0 0
BITMAP
ENDCHAR
STARTCHAR 00EC
ENCODING 236
SWIDTH 291 0
DWIDTH 21 0
BBX 0 0 0 0
BITMAP
ENDCHAR
STARTCHAR 00ED
ENCODING 237
SWIDTH 291 0
DWIDTH 21 0
BBX 0 0 0 0
BITMAP
ENDCHAR
STARTCHAR 00EE
ENCODING 238
SWIDTH 291 0
DWIDTH 21 0
BBX 0 0 0 0
BITMAP
ENDCHAR
STARTCHAR 00EF
ENCODING 239
SWIDTH 291 0
DWIDTH 21 0
BBX 0 0 0 0
BITMAP
ENDCHAR
STARTCHAR 00F0
ENCODING 240
SWIDTH 486 0
DWIDTH 35 0
BBX 0 0 0 0
BITMAP
ENDCHAR
STARTCHAR 00F1
ENCODING 241
SWIDTH 527 0
DWIDTH 38 0
BBX 0 0 0 0
BITMAP
ENDCHAR
STARTCHAR 00F2
ENCODING 242
SWIDTH 472 0
DWIDTH 34 0
BBX 0 0 0 0
BITMAP
ENDCHAR
STARTCHAR 00F3
ENCODING 243
SWIDTH 472 0
DWIDTH 34 0
BBX 0 0 0 0
BITMAP
ENDCHAR
STARTCHAR 00F4
ENCODING 244
SWIDTH 472 0
DWIDTH 34 0
BBX 0 0 0 0
BITMAP
ENDCHAR
STARTCHAR 00F5
ENCODING 245
SWIDTH 472 0
DWIDTH 34 0
BBX 0 0 0 0
BITMAP
ENDCHAR
STARTCHAR 00F6
ENCODING 246
SWIDTH 472 0
DWIDTH 34 0
BBX 0 0 0 0
BITMAP
ENDCHAR
STARTCHAR 00F7
ENCODING 247
SWIDTH 569 0
DWIDTH 41 0
BBX 36 43 2 0
BITMAP
0000400000
0000E00000
0000E00000
0001F00000
0003F80000
000FFE0000
003FFF8000
003FFF8000
000FFC0000
0003F80000
0001F00000
0001E00000
0000E00000
0000400000
0000000000
0000000000
0000000000
FFFFFFFFF0
FFFFFFFFF0
FFFFFFFFF0
FFFFFFFFF0
FFFFFFFFF0
FFFFFFFFF0
FFFFFFFFF0
0000000000
0000000000
0000000000
0000000000
0000000000
0000400000
0000E00000
0000E00000
0001F00000
0003F80000
000FFE0000
003FFF8000
003FFF8000
000FFC0000
0003F80000
0001F00000
0000E00000
0000E00000
0000400000
ENDCHAR
STARTCHAR 00F8
ENCODING 248
SWIDTH 472 0
DWIDTH 34 0
BBX 0 0 0 0
BITMAP
ENDCHAR
STARTCHAR 00F9
ENCODING 249
SWIDTH 527 0
DWIDTH 38 0
BBX 0 0 0 0
BITMAP
ENDCHAR
STARTCHAR 00FA
ENCODING 250
SWIDTH 527 0
DWIDTH 38 0
BBX 0 0 0 0
BITMAP
ENDCHAR
STARTCHAR 00FB
ENCODING 251
SWIDTH 527 0
DWIDTH 38 0
BBX 0 0 0 0
BITMAP
ENDCHAR
STARTCHAR 00FC
ENCODING 252
SWIDTH 527 0
DWIDTH 38 0
BBX 0 0 0 0
BITMAP
ENDCHAR
STARTCHAR 00FD
ENCODING 253
SWIDTH 513 0
DWIDTH 37 0
BBX 0 0 0 0
BITMAP
ENDCHAR
STARTCHAR 00FE
ENCODING 254
SWIDTH 527 0
DWIDTH 38 0
BBX 0 0 0 0
BITMAP
ENDCHAR
STARTCHAR 00FF
ENCODING 255
SWIDTH 513 0
DWIDTH 37 0
BBX 0 0 0 0
BITMAP
ENDCHAR
STARTCHAR 0131
ENCODING 305
SWIDTH 291 0
DWIDTH 21 0
BBX 0 0 0 0
BITMAP
ENDCHAR
STARTCHAR 0141
ENCODING 321
SWIDTH 583 0
DWIDTH 42 0
BBX 0 0 0 0
BITMAP
ENDCHAR
STARTCHAR 0142
ENCODING 322
SWIDTH 291 0
DWIDTH 21 0
BBX 0 0 0 0
BITMAP
ENDCHAR
STARTCHAR 0152
ENCODING 338
SWIDTH 986 0
DWIDTH 71 0
BBX 0 0 0 0
BITMAP
ENDCHAR
STARTCHAR 0153
ENCODING 339
SWIDTH 666 0
DWIDTH 48 0
BBX 0 0 0 0
BITMAP
ENDCHAR
STARTCHAR 0160
ENCODING 352
SWIDTH 763 0
DWIDTH 55 0
BBX 0 0 0 0
BITMAP
ENDCHAR
STARTCHAR 0161
ENCODING 353
SWIDTH 486 0
DWIDTH 35 0
BBX 0 0 0 0
BITMAP
ENDCHAR
STARTCHAR 0178
ENCODING 376
SWIDTH 763 0
DWIDTH 55 0
BBX 0 0 0 0
BITMAP
ENDCHAR
STARTCHAR 017D
ENCODING 381
SWIDTH 611 0
DWIDTH 44 0
BBX 0 0 0 0
BITMAP
ENDCHAR
STARTCHAR 017E
ENCODING 382
SWIDTH 388 0
DWIDTH 28 0
BBX 0 0 0 0
BITMAP
ENDCHAR
STARTCHAR 0192
ENCODING 402
SWIDTH 597 0
DWIDTH 43 0
BBX 46 67 -3 -16
BITMAP
00000007FE00
0000003FC3C0
000000FF81F0
000001FF03F8
000003FF07F8
000007FE0FFC
00000FFE1FFC
00000FFE1FFC
00001FFC1FFC
00001FFC1FF8
00001FFC0FF0
00003FFC07E0
00003FFC0000
00003FF80000
00003FF80000
00003FF80000
00003FF80000
00003FF80000
00003FF80000
00003FF80000
00003FF80000
00003FF80000
00003FF80000
00007FF80000
00007FF80000
00007FF80000
00007FF80000
00FFFFFFFF00
00007FF00000
00007FF00000
00007FF00000
00007FF00000
00007FF00000
00007FF00000
00007FF00000
00007FF00000
00007FF00000
00007FF00000
00007FF00000
00007FF00000
0000FFE00000
0000FFE00000
0000FFE00000
0000FFE00000
0000FFE00000
0000FFE00000
0000FFE00000
0000FFE00000
0000FFE00000
0000FFE00000
0000FFE00000
0000FFE00000
0000FFE00000
0000FFE00000
0000FFE00000
1F00FFC00000
7FC0FFC00000
FFC0FFC00000
FFE1FFC00000
FFE1FF800000
FFE1FF800000
FFC1FF000000
FF83FE000000
7F03FC000000
3E07F8000000
0F0FE0000000
03FF00000000
ENDCHAR
STARTCHAR 02BA
ENCODING 698
SWIDTH 1000 0
DWIDTH 72 0
BBX 0 0 0 0
BITMAP
ENDCHAR
STARTCHAR 02C6
ENCODING 710
SWIDTH 347 0
DWIDTH 25 0
BBX 0 0 0 0
BITMAP
ENDCHAR
STARTCHAR 02C7
ENCODING 711
SWIDTH 277 0
DWIDTH 20 0
BBX 0 0 0 0
BITMAP
ENDCHAR
STARTCHAR 02D8
ENCODING 728
SWIDTH 277 0
DWIDTH 20 0
BBX 0 0 0 0
BITMAP
ENDCHAR
STARTCHAR 02D9
ENCODING 729
SWIDTH 1000 0
DWIDTH 72 0
BBX 0 0 0 0
BITMAP
ENDCHAR
STARTCHAR 02DA
ENCODING 730
SWIDTH 277 0
DWIDTH 20 0
BBX 0 0 0 0
BITMAP
ENDCHAR
STARTCHAR 02DB
ENCODING 731
SWIDTH 1000 0
DWIDTH 72 0
BBX 0 0 0 0
BITMAP
ENDCHAR
STARTCHAR 02DC
ENCODING 732
SWIDTH 361 0
DWIDTH 26 0
BBX 0 0 0 0
BITMAP
ENDCHAR
STARTCHAR 2013
ENCODING 8211
SWIDTH 472 0
DWIDTH 34 0
BBX 33 6 0 16
BITMAP
FFFFFFFF80
FFFFFFFF80
FFFFFFFF80
FFFFFFFF80
FFFFFFFF80
FFFFFFFF80
ENDCHAR
STARTCHAR 2014
ENCODING 8212
SWIDTH 750 0
DWIDTH 54 0
BBX 53 6 0 16
BITMAP
FFFFFFFFFFFFF8
FFFFFFFFFFFFF8
FFFFFFFFFFFFF8
FFFFFFFFFFFFF8
FFFFFFFFFFFFF8
FFFFFFFFFFFFF8
ENDCHAR
STARTCHAR 2018
ENCODING 8216
SWIDTH 347 0
DWIDTH 25 0
BBX 15 29 5 22
BITMAP
0004
000C
0018
0030
0020
0060
0040
00C0
00C0
0180
0180
0180
0380
03C0
03C0
07C0
07C0
0FE0
1FE0
1FF8
7FFC
FFFE
7FFC
1FF0
0FE0
07C0
0380
0300
0100
ENDCHAR
STARTCHAR 2019
ENCODING 8217
SWIDTH 347 0
DWIDTH 25 0
BBX 15 29 5 20
BITMAP
0100
0300
0380
07C0
0FE0
1FF0
7FFC
FFFE
7FFC
3FF0
1FE0
0FE0
07C0
07C0
0780
0780
0700
0700
0700
0600
0600
0600
0400
0C00
0800
1000
3000
6000
4000
ENDCHAR
STARTCHAR 201A
ENCODING 8218
SWIDTH 347 0
DWIDTH 25 0
BBX 15 26 5 -14
BITMAP
0100
0380
0780
07C0
0FE0
3FF8
FFFE
FFFC
3FF0
1FE0
0FE0
07C0
07C0
0780
0780
0700
0700
0600
0600
0600
0400
0C00
0800
1000
2000
4000
ENDCHAR
STARTCHAR 201C
ENCODING 8220
SWIDTH 583 0
DWIDTH 42 0
BBX 31 29 5 22
BITMAP
00000002
000C0004
00180008
00100018
00300030
00600020
00600060
00400060
00C00040
00C000C0
01C000C0
01C001C0
01C001C0
03C001C0
03C003C0
07C003E0
07E007E0
0FE007E0
0FF00FF0
1FF81FF8
3FFC3FFE
FFFE7FFE
3FFC3FFC
1FF00FF8
0FE007E0
07C003E0
038003C0
01800180
01000180
ENDCHAR
STARTCHAR 201D
ENCODING 8221
SWIDTH 583 0
DWIDTH 42 0
BBX 31 29 5 20
BITMAP
01000180
01800180
038003C0
07C003C0
0FE007E0
1FF00FF0
3FFC3FFC
FFFE7FFE
7FFC3FFC
1FF81FF8
0FF00FF0
0FE007E0
07E007E0
07C003C0
07C003C0
038003C0
03800380
03000380
03000300
03000300
06000300
06000200
06000600
0C000400
08000C00
18000800
30001000
60002000
40004000
ENDCHAR
STARTCHAR 201E
ENCODING 8222
SWIDTH 583 0
DWIDTH 42 0
BBX 31 28 5 -14
BITMAP
01000000
03800180
03800180
07C003C0
0FE007E0
1FF00FF0
FFFC1FF8
FFFE7FFE
3FFC7FFE
1FF01FF8
0FE00FF0
0FE007E0
07C007E0
07C003C0
078003C0
07800380
07000380
07000380
07000300
06000300
06000200
04000600
0C000400
08000C00
10000800
20001000
40002000
00004000
ENDCHAR
STARTCHAR 2020
ENCODING 8224
SWIDTH 597 0
DWIDTH 43 0
BBX 37 65 3 -15
BITMAP
0000F80000
0001FC0000
0003FE0000
0003FF0000
0007FF0000
0007FF0000
0007FF0000
0003FF0000
0003FE0000
0001FE0000
0001FC0000
0000FC0000
0000FC0000
0000F80000
0000780000
1E007003C0
3F80700FF0
7FE0303FF0
7FF820FFF8
FFFF27FFF8
FFFFFFFFF8
FFFFFFFFF8
FFFF23FFF8
7FFC20FFF8
7FF0203FF0
3FC0300FF0
1E007003C0
0000780000
0000F80000
0001FC0000
0003FE0000
000FFF8000
000FFF8000
000FFF8000
000FFF0000
0007FF0000
0007FE0000
0003FE0000
0003FE0000
0003FE0000
0001FC0000
0001FC0000
0001FC0000
0000FC0000
0000F80000
0000F80000
0000F80000
0000780000
0000780000
0000700000
0000700000
0000700000
0000700000
0000300000
0000300000
0000300000
0000300000
0000200000
0000200000
0000200000
0000200000
0000200000
0000200000
0000200000
0000200000
ENDCHAR
STARTCHAR 2021
ENCODING 8225
SWIDTH 597 0
DWIDTH 43 0
BBX 37 66 3 -16
BITMAP
0000780000
0001FC0000
0003FE0000
0003FF0000
0007FF0000
0007FF0000
0007FF0000
0003FF0000
0003FE0000
0003FE0000
0001FE0000
0001FC0000
0000FC0000
0000F80000
0000F80000
1E007003C0
3F80700FF0
7FE0303FF0
7FF820FFF8
FFFE27FFF8
FFFFFFFFF8
FFFFFFFFF8
FFFF23FFF8
7FF820FFF8
7FE0303FF0
3F80700FF0
1E007003C0
0000F80000
0000FC0000
0001FE0000
0003FF0000
0007FF8000
000FFFC000
000FFFC000
0007FF8000
0003FF0000
0001FE0000
0000FC0000
0000F80000
1E007803C0
3F80700FF0
7FE0303FF0
7FF8207FF8
FFFE23FFF8
FFFFFFFFF8
FFFFFFFFF8
FFFF23FFF8
7FF820FFF8
7FE0303FF0
3F80700FE0
1E007803C0
0000F80000
0000F80000
0000FC0000
0001FC0000
0001FE0000
0003FE0000
0003FE0000
0003FF0000
0007FF0000
0007FF0000
0007FF0000
0003FF0000
0003FE0000
0001FC0000
0000780000
ENDCHAR
STARTCHAR 2022
ENCODING 8226
SWIDTH 416 0
DWIDTH 30 0
BBX 21 21 4 11
BITMAP
003000
007000
007000
00F800
01FC00
01FE00
03FF00
0FFF80
1FFFE0
7FFFF8
FFFFF8
7FFFF0
1FFFC0
0FFF80
07FF00
03FE00
01FC00
00F800
007800
007000
003000
ENDCHAR
STARTCHAR 2026
ENCODING 8230
SWIDTH 986 0
DWIDTH 71 0
BBX 62 14 4 -1
BITMAP
0180000100000200
0180000380000300
03C0000380000780
07E00007C0000F80
0FF0000FE0001FE0
1FF8001FF0003FF0
FFFE00FFFC01FFFC
7FFE007FFC00FFFC
1FF8003FF0003FF0
0FF0000FE0001FC0
07E00007C0000F80
03C0000380000780
0180000380000700
0180000100000300
ENDCHAR
STARTCHAR 2030
ENCODING 8240
SWIDTH 986 0
DWIDTH 71 0
BBX 69 49 1 0
BITMAP
00FE00001800000000
03C780001C00000000
0F83E0003C00000000
1F83F0003800000000
3F83F8007000000000
3F83F800F000000000
7F83FC00E000000000
7F83FC01E000000000
FF83FE03C000000000
FF83FE038000000000
FF83FE078000000000
FF83FE070000000000
FF83FE0E0000000000
FF83FE1E0000000000
FF83FC1C0000000000
7F83FC3C0000000000
7F83FC780000000000
7F83F8700000000000
3F83F0F00000000000
1F83E1E00000000000
0F83C1C00000000000
03C783C00000000000
00FE03800000000000
000007000000000000
00000F000000000000
00000E000000000000
00001E07F00003F800
00003C1E3C000F1E00
0000387C1F003E0F80
000078FC1F807E0FC0
000071FC1FC0FE0FE0
0000E1FC1FC0FE0FE0
0001E3FC1FE1FE0FF0
0001C3FC1FE1FE0FF0
0003C7FC1FF3FE0FF8
000787FC1FF3FE0FF8
000707FC1FF3FE0FF8
000F07FC1FF3FE0FF8
000E07FC1FF3FE0FF8
001C07FC1FF3FE0FF8
003C07FC1FE3FE0FF0
003803FC1FE1FE0FF0
007803FC1FE1FE0FF0
00F003FC1FC0FE0FE0
00E001FC1F80FE0FC0
01E000FC1F007E0F80
03C0007C1E003E0F00
0080001E3C000F1E00
00000007F00003F800
ENDCHAR
STARTCHAR 2039
ENCODING 8249
SWIDTH 277 0
DWIDTH 20 0
BBX 13 27 3 5
BITMAP
0008
0018
0030
0070
00E0
01E0
03C0
07C0
0F80
1F80
3F00
7F00
FE00
FE00
FE00
7F00
3F00
1F80
0F80
07C0
03C0
01E0
00E0
0070
0030
0018
0008
ENDCHAR
STARTCHAR 203A
ENCODING 8250
SWIDTH 277 0
DWIDTH 20 0
BBX 13 27 3 5
BITMAP
C000
6000
7000
3000
3800
1C00
1E00
1F00
0F80
0FC0
07E0
07F0
03F8
03F8
03F8
07F0
07E0
0FC0
0F80
1F00
1E00
1C00
3800
3000
7000
6000
C000
ENDCHAR
STARTCHAR 2122
ENCODING 8482
SWIDTH 958 0
DWIDTH 69 0
BBX 63 26 3 24
BITMAP
07F00000F81E07C0
1FFC0003FE7F8FE0
3FFF0C04FF5FD3F0
7FFF82083F8FE3F0
7FFFE1183F87E3F0
C0FFF11C1F87E3F0
803FFD1E1F87E3F0
800FFF1F1F87E3F0
8017FF1F9FC7E1F8
4039FE1FDFC7E00E
607C7C1FDFC7E070
1CFF000FDFC7E1E0
00FF8007DFC7E3E0
00FF8003DFC7E7E0
007F80009FC7E7E0
003F80010F87E7E0
001F800E0F87C7E0
0FCE00010F0787E0
1FF400038EC787E0
3FFC0107CCE707E0
7FFF0107EDF607E0
47FFC30FFBFC07F6
83FFFE17F5FC03F8
00FFFC23E8F803F0
003FF801C87001E0
0007E000402000C0
ENDCHAR
STARTCHAR 2215
ENCODING 8725
SWIDTH 180 0
DWIDTH 13 0
BBX 34 51 -10 -2
BITMAP
0000000100
0000000380
00000003C0
0000000780
0000000F00
0000000F00
0000001E00
0000001E00
0000003C00
0000007800
0000007800
000000F000
000000E000
000001E000
000003C000
000003C000
0000078000
00000F0000
00000F0000
00001E0000
00001E0000
00003C0000
0000780000
0000780000
0000F00000
0000E00000
0001E00000
0003C00000
0003C00000
0007800000
0007000000
000F000000
001E000000
001C000000
003C000000
0078000000
0078000000
00F0000000
00E0000000
01E0000000
03C0000000
0380000000
0780000000
0700000000
0F00000000
1E00000000
1C00000000
3C00000000
3800000000
7000000000
F000000000
ENDCHAR
STARTCHAR 2219
ENCODING 8729
SWIDTH 208 0
DWIDTH 15 0
BBX 7 7 4 14
BITMAP
38
7C
FE
FE
FE
7C
38
ENDCHAR
STARTCHAR F000
ENCODING 61440
SWIDTH 1000 0
DWIDTH 72 0
BBX 0 0 0 0
BITMAP
ENDCHAR
STARTCHAR F001
ENCODING 61441
SWIDTH 597 0
DWIDTH 43 0
BBX 36 66 1 -16
BITMAP
00F8100000
03FE100000
07FF100000
07FF900000
0FFFF00000
0FFFF00000
0FFFF00000
0FFFF00000
0DFFE00000
083FC00000
080F800000
0800000000
0C00000000
0E00004000
0F0000E000
0F8001F000
0FE007FC00
0FF83FFE00
0FFFFFFF80
1FFFFFFFC0
3FFF8FFF00
FFFF8FFE00
0FFF8FFE00
0FFF8FFE00
0FFF8FFE00
0FFF8FFE00
0FFF8FFE00
0FFF8FFE00
0FFF8FFE00
0FFF8FFE00
0FFF8FFE00
0FFF8FFE00
07FF8FFE00
07FF8FFE00
07FF8FFE00
07FF0FFE00
07FF0FFE00
07FF0FFE00
07FF0FFE00
07FF0FFE00
07FF0FFE00
03FE0FFE00
03FE0FFF10
03FE0FFFE0
03FE0FFFC0
03FE07FF80
03FE07FE00
03FC03FC00
01FC01F800
01FC00F000
01FC006000
01FC000000
01F8000000
00F8000000
00F8000000
00F8000000
00F8000000
00F0000000
00F0000000
0070000000
0070000000
0070000000
0070000000
0060000000
0020000000
0020000000
ENDCHAR
STARTCHAR F002
ENCODING 61442
SWIDTH 583 0
DWIDTH 42 0
BBX 41 66 1 -16
BITMAP
00F810001F80
03FE1001FC00
07FF1007F000
07FF981FE000
07FFF83FE000
0FFFF47FC000
0FFFF4FFC000
0FFFF6FFC000
0CFFF2FFC000
083FE3FFC000
080F83FFC000
080001FFC000
0C0001FFC000
0E0001FFC000
0F0001FFC000
0FC001FFC000
0FF801FFC000
0FFFFDFFC000
0FFFFDFFC000
1FFFFDFFC000
3FFFFDFFC000
FFFFFDFFC000
0FFF81FFC000
0FFF81FFC000
0FFF81FFC000
0FFF81FFC000
0FFF81FFC000
0FFF81FFC000
0FFF81FFC000
0FFF81FFC000
0FFF81FFC000
0FFF81FFC000
07FF81FFC000
07FF81FFC000
07FF81FFC000
07FF01FFC000
07FF01FFC000
07FF01FFC000
07FF01FFC000
07FF01FFC000
07FF01FFC000
03FF01FFC000
03FE01FFE100
03FE07FFFF00
03FE01FFFC00
03FE00FFF800
03FE007FF000
03FC003FC000
01FC001F8000
01FC000E0000
01FC00040000
01FC00000000
01F800000000
00F800000000
00F800000000
00F800000000
00F800000000
00F000000000
00F000000000
007000000000
007000000000
007000000000
007000000000
006000000000
002000000000
002000000000
ENDCHAR
ENDFONT
